<?xml version="1.0" encoding="UTF-8" standalone="no"?>
<!DOCTYPE svg PUBLIC "-//W3C//DTD SVG 1.1//EN"
 "http://www.w3.org/Graphics/SVG/1.1/DTD/svg11.dtd">
<!-- Generated by graphviz version 2.44.0 ()
 -->
<!-- Pages: 1 -->
<svg width="609pt" height="567pt"
 viewBox="0.00 0.00 609.43 566.79" xmlns="http://www.w3.org/2000/svg" xmlns:xlink="http://www.w3.org/1999/xlink">
<g id="graph0" class="graph" transform="scale(1 1) rotate(0) translate(36 530.79)">
<polygon fill="#ffffff" stroke="transparent" points="-36,36 -36,-530.79 573.43,-530.79 573.43,36 -36,36"/>
<!-- net: default -->
<g id="node1" class="node">
<title>net: default</title>
<polygon fill="none" stroke="black" points="159.1,-23.56 79.53,-36 -0.03,-23.56 30.36,-3.44 128.71,-3.44 159.1,-23.56"/>
<text text-anchor="middle" x="79.53" y="-14.3" font-family="Times,serif" font-size="14.00">net: default</text>
</g>
<!-- net: webrender -->
<g id="node2" class="node">
<title>net: webrender</title>
<polygon fill="none" stroke="gray" points="379.98,-23.56 278.53,-36 177.08,-23.56 215.83,-3.44 341.23,-3.44 379.98,-23.56"/>
<text text-anchor="middle" x="278.53" y="-14.3" font-family="Times,serif" font-size="14.00">net: webrender</text>
</g>
<!-- net: kafka -->
<g id="node3" class="node">
<title>net: kafka</title>
<polygon fill="none" stroke="gray" points="537.32,-23.56 467.53,-36 397.75,-23.56 424.4,-3.44 510.66,-3.44 537.32,-23.56"/>
<text text-anchor="middle" x="467.53" y="-14.3" font-family="Times,serif" font-size="14.00">net: kafka</text>
</g>
<!-- npld&#45;heritrix&#45;worker -->
<g id="node4" class="node">
<title>npld&#45;heritrix&#45;worker</title>
<polygon fill="none" stroke="black" points="439.03,-255 278.03,-255 278.03,-251 274.03,-251 274.03,-247 278.03,-247 278.03,-227 274.03,-227 274.03,-223 278.03,-223 278.03,-219 439.03,-219 439.03,-255"/>
<polyline fill="none" stroke="black" points="278.03,-251 282.03,-251 282.03,-247 278.03,-247 "/>
<polyline fill="none" stroke="black" points="278.03,-227 282.03,-227 282.03,-223 278.03,-223 "/>
<text text-anchor="middle" x="358.53" y="-233.3" font-family="Times,serif" font-size="14.00">npld&#45;heritrix&#45;worker</text>
</g>
<!-- npld&#45;heritrix&#45;worker&#45;&gt;net: default -->
<g id="edge4" class="edge">
<title>npld&#45;heritrix&#45;worker&#45;&gt;net: default</title>
<path fill="none" stroke="black" d="M322.4,-218.95C296.71,-206.58 264.69,-190.56 252.53,-182 248.39,-179.08 148.55,-84.49 102.47,-40.77"/>
<polygon fill="black" stroke="black" points="104.7,-38.06 95.04,-33.72 99.88,-43.14 104.7,-38.06"/>
</g>
<!-- npld&#45;heritrix&#45;worker&#45;&gt;net: kafka -->
<g id="edge5" class="edge">
<title>npld&#45;heritrix&#45;worker&#45;&gt;net: kafka</title>
<path fill="none" stroke="black" d="M372.98,-218.73C381.13,-208.47 391.13,-194.97 398.53,-182 405.71,-169.43 439.69,-87.08 457.14,-44.47"/>
<polygon fill="black" stroke="black" points="460.45,-45.62 461,-35.04 453.97,-42.97 460.45,-45.62"/>
</g>
<!-- clamd -->
<g id="node5" class="node">
<title>clamd</title>
<polygon fill="none" stroke="black" points="205.03,-182 146.03,-182 146.03,-178 142.03,-178 142.03,-174 146.03,-174 146.03,-154 142.03,-154 142.03,-150 146.03,-150 146.03,-146 205.03,-146 205.03,-182"/>
<polyline fill="none" stroke="black" points="146.03,-178 150.03,-178 150.03,-174 146.03,-174 "/>
<polyline fill="none" stroke="black" points="146.03,-154 150.03,-154 150.03,-150 146.03,-150 "/>
<text text-anchor="middle" x="175.53" y="-160.3" font-family="Times,serif" font-size="14.00">clamd</text>
</g>
<!-- npld&#45;heritrix&#45;worker&#45;&gt;clamd -->
<g id="edge1" class="edge">
<title>npld&#45;heritrix&#45;worker&#45;&gt;clamd</title>
<path fill="none" stroke="black" stroke-dasharray="1,5" d="M314.7,-218.99C284.3,-207.2 244.16,-191.63 214.8,-180.24"/>
<polygon fill="black" stroke="black" points="215.88,-176.9 205.29,-176.55 213.35,-183.43 215.88,-176.9"/>
</g>
<!-- webrender -->
<g id="node6" class="node">
<title>webrender</title>
<polygon fill="none" stroke="black" points="355.53,-182 261.53,-182 261.53,-178 257.53,-178 257.53,-174 261.53,-174 261.53,-154 257.53,-154 257.53,-150 261.53,-150 261.53,-146 355.53,-146 355.53,-182"/>
<polyline fill="none" stroke="black" points="261.53,-178 265.53,-178 265.53,-174 261.53,-174 "/>
<polyline fill="none" stroke="black" points="261.53,-154 265.53,-154 265.53,-150 261.53,-150 "/>
<text text-anchor="middle" x="308.53" y="-160.3" font-family="Times,serif" font-size="14.00">webrender</text>
</g>
<!-- npld&#45;heritrix&#45;worker&#45;&gt;webrender -->
<g id="edge2" class="edge">
<title>npld&#45;heritrix&#45;worker&#45;&gt;webrender</title>
<path fill="none" stroke="black" stroke-dasharray="1,5" d="M346.43,-218.81C340.41,-210.27 333.02,-199.77 326.37,-190.32"/>
<polygon fill="black" stroke="black" points="329.15,-188.19 320.53,-182.03 323.42,-192.22 329.15,-188.19"/>
</g>
<!-- webrender&#45;&gt;net: default -->
<g id="edge15" class="edge">
<title>webrender&#45;&gt;net: default</title>
<path fill="none" stroke="black" d="M281.37,-145.92C238.36,-118.87 154.89,-66.38 109.94,-38.12"/>
<polygon fill="black" stroke="black" points="111.55,-35 101.23,-32.64 107.83,-40.93 111.55,-35"/>
</g>
<!-- webrender&#45;&gt;net: webrender -->
<g id="edge16" class="edge">
<title>webrender&#45;&gt;net: webrender</title>
<path fill="none" stroke="black" d="M290.79,-145.77C281.96,-135.94 272.19,-122.83 267.53,-109 260.53,-88.2 264.42,-63.36 269.41,-45.06"/>
<polygon fill="black" stroke="black" points="272.8,-45.95 272.32,-35.37 266.09,-43.94 272.8,-45.95"/>
</g>
<!-- warcprox -->
<g id="node10" class="node">
<title>warcprox</title>
<polygon fill="none" stroke="black" points="360.03,-109 277.03,-109 277.03,-105 273.03,-105 273.03,-101 277.03,-101 277.03,-81 273.03,-81 273.03,-77 277.03,-77 277.03,-73 360.03,-73 360.03,-109"/>
<polyline fill="none" stroke="black" points="277.03,-105 281.03,-105 281.03,-101 277.03,-101 "/>
<polyline fill="none" stroke="black" points="277.03,-81 281.03,-81 281.03,-77 277.03,-77 "/>
<text text-anchor="middle" x="318.53" y="-87.3" font-family="Times,serif" font-size="14.00">warcprox</text>
</g>
<!-- webrender&#45;&gt;warcprox -->
<g id="edge14" class="edge">
<title>webrender&#45;&gt;warcprox</title>
<path fill="none" stroke="black" stroke-dasharray="1,5" d="M310.95,-145.81C312.08,-137.79 313.46,-128.05 314.72,-119.07"/>
<polygon fill="black" stroke="black" points="318.21,-119.42 316.14,-109.03 311.27,-118.44 318.21,-119.42"/>
</g>
<!-- 8443 -->
<g id="node7" class="node">
<title>8443</title>
<ellipse fill="none" stroke="black" cx="369.53" cy="-340.45" rx="34.39" ry="34.39"/>
<text text-anchor="middle" x="369.53" y="-336.75" font-family="Times,serif" font-size="14.00">8443</text>
</g>
<!-- 8443&#45;&gt;npld&#45;heritrix&#45;worker -->
<g id="edge3" class="edge">
<title>8443&#45;&gt;npld&#45;heritrix&#45;worker</title>
<path fill="none" stroke="black" d="M365.9,-305.95C364.48,-292.82 362.87,-277.96 361.51,-265.48"/>
<polygon fill="black" stroke="black" points="364.96,-264.8 360.4,-255.24 358,-265.56 364.96,-264.8"/>
</g>
<!-- bypm&#45;heritrix&#45;worker -->
<g id="node8" class="node">
<title>bypm&#45;heritrix&#45;worker</title>
<polygon fill="none" stroke="black" points="260.03,-255 91.03,-255 91.03,-251 87.03,-251 87.03,-247 91.03,-247 91.03,-227 87.03,-227 87.03,-223 91.03,-223 91.03,-219 260.03,-219 260.03,-255"/>
<polyline fill="none" stroke="black" points="91.03,-251 95.03,-251 95.03,-247 91.03,-247 "/>
<polyline fill="none" stroke="black" points="91.03,-227 95.03,-227 95.03,-223 91.03,-223 "/>
<text text-anchor="middle" x="175.53" y="-233.3" font-family="Times,serif" font-size="14.00">bypm&#45;heritrix&#45;worker</text>
</g>
<!-- bypm&#45;heritrix&#45;worker&#45;&gt;net: default -->
<g id="edge9" class="edge">
<title>bypm&#45;heritrix&#45;worker&#45;&gt;net: default</title>
<path fill="none" stroke="black" d="M161.17,-218.84C153.13,-208.62 143.38,-195.12 136.53,-182 112.63,-136.19 95.08,-78.19 86.16,-45.17"/>
<polygon fill="black" stroke="black" points="89.51,-44.14 83.57,-35.37 82.74,-45.93 89.51,-44.14"/>
</g>
<!-- bypm&#45;heritrix&#45;worker&#45;&gt;net: kafka -->
<g id="edge10" class="edge">
<title>bypm&#45;heritrix&#45;worker&#45;&gt;net: kafka</title>
<path fill="none" stroke="black" d="M257.91,-218.94C300.66,-208.84 347.46,-195.41 364.53,-182 408.36,-147.57 395.84,-119.52 426.53,-73 433.38,-62.62 441.56,-51.61 448.81,-42.26"/>
<polygon fill="black" stroke="black" points="451.71,-44.23 455.13,-34.2 446.21,-39.9 451.71,-44.23"/>
</g>
<!-- bypm&#45;heritrix&#45;worker&#45;&gt;clamd -->
<g id="edge6" class="edge">
<title>bypm&#45;heritrix&#45;worker&#45;&gt;clamd</title>
<path fill="none" stroke="black" stroke-dasharray="1,5" d="M175.53,-218.81C175.53,-210.79 175.53,-201.05 175.53,-192.07"/>
<polygon fill="black" stroke="black" points="179.03,-192.03 175.53,-182.03 172.03,-192.03 179.03,-192.03"/>
</g>
<!-- bypm&#45;heritrix&#45;worker&#45;&gt;webrender -->
<g id="edge7" class="edge">
<title>bypm&#45;heritrix&#45;worker&#45;&gt;webrender</title>
<path fill="none" stroke="black" stroke-dasharray="1,5" d="M207.39,-218.99C225.44,-209.36 248.2,-197.21 267.57,-186.87"/>
<polygon fill="black" stroke="black" points="269.3,-189.91 276.48,-182.11 266.01,-183.74 269.3,-189.91"/>
</g>
<!-- 9443 -->
<g id="node9" class="node">
<title>9443</title>
<ellipse fill="none" stroke="black" cx="163.53" cy="-340.45" rx="34.39" ry="34.39"/>
<text text-anchor="middle" x="163.53" y="-336.75" font-family="Times,serif" font-size="14.00">9443</text>
</g>
<!-- 9443&#45;&gt;bypm&#45;heritrix&#45;worker -->
<g id="edge8" class="edge">
<title>9443&#45;&gt;bypm&#45;heritrix&#45;worker</title>
<path fill="none" stroke="black" d="M167.5,-305.95C169.05,-292.82 170.81,-277.96 172.28,-265.48"/>
<polygon fill="black" stroke="black" points="175.8,-265.58 173.49,-255.24 168.84,-264.76 175.8,-265.58"/>
<text text-anchor="middle" x="190.03" y="-276.8" font-family="Times,serif" font-size="14.00">8443</text>
</g>
<!-- warcprox&#45;&gt;net: default -->
<g id="edge11" class="edge">
<title>warcprox&#45;&gt;net: default</title>
<path fill="none" stroke="black" d="M276.78,-75.6C256.56,-68.78 231.87,-60.69 209.53,-54 183.77,-46.28 154.9,-38.43 130.93,-32.13"/>
<polygon fill="black" stroke="black" points="131.54,-28.67 120.98,-29.53 129.77,-35.44 131.54,-28.67"/>
</g>
<!-- warcprox&#45;&gt;net: webrender -->
<g id="edge13" class="edge">
<title>warcprox&#45;&gt;net: webrender</title>
<path fill="none" stroke="black" d="M308.85,-72.81C303.94,-64.1 297.9,-53.37 292.5,-43.79"/>
<polygon fill="black" stroke="black" points="295.54,-42.05 287.58,-35.06 289.44,-45.49 295.54,-42.05"/>
</g>
<!-- warcprox&#45;&gt;net: kafka -->
<g id="edge12" class="edge">
<title>warcprox&#45;&gt;net: kafka</title>
<path fill="none" stroke="black" d="M342.68,-72.89C352.32,-66.48 363.69,-59.45 374.53,-54 390.11,-46.17 407.87,-39.07 423.68,-33.35"/>
<polygon fill="black" stroke="black" points="424.97,-36.6 433.22,-29.96 422.63,-30 424.97,-36.6"/>
</g>
<!-- prometheus -->
<g id="node11" class="node">
<title>prometheus</title>
<polygon fill="none" stroke="black" points="317.53,-358.45 215.53,-358.45 215.53,-354.45 211.53,-354.45 211.53,-350.45 215.53,-350.45 215.53,-330.45 211.53,-330.45 211.53,-326.45 215.53,-326.45 215.53,-322.45 317.53,-322.45 317.53,-358.45"/>
<polyline fill="none" stroke="black" points="215.53,-354.45 219.53,-354.45 219.53,-350.45 215.53,-350.45 "/>
<polyline fill="none" stroke="black" points="215.53,-330.45 219.53,-330.45 219.53,-326.45 215.53,-326.45 "/>
<text text-anchor="middle" x="266.53" y="-336.75" font-family="Times,serif" font-size="14.00">prometheus</text>
</g>
<!-- prometheus&#45;&gt;net: default -->
<g id="edge20" class="edge">
<title>prometheus&#45;&gt;net: default</title>
<path fill="none" stroke="black" d="M237.61,-322.39C227.87,-316.9 216.85,-310.96 206.53,-306 143.1,-275.52 63.53,-308.38 63.53,-238 63.53,-238 63.53,-238 63.53,-90 63.53,-74.85 67.05,-58.31 70.78,-45.01"/>
<polygon fill="black" stroke="black" points="74.22,-45.71 73.76,-35.12 67.52,-43.69 74.22,-45.71"/>
</g>
<!-- prometheus&#45;&gt;net: kafka -->
<g id="edge21" class="edge">
<title>prometheus&#45;&gt;net: kafka</title>
<path fill="none" stroke="black" d="M295.48,-322.45C305.22,-316.96 316.24,-311 326.53,-306 389.11,-275.6 467.53,-307.57 467.53,-238 467.53,-238 467.53,-238 467.53,-90 467.53,-75.65 467.53,-59.67 467.53,-46.51"/>
<polygon fill="black" stroke="black" points="471.03,-46.22 467.53,-36.22 464.03,-46.22 471.03,-46.22"/>
</g>
<!-- prometheus&#45;&gt;npld&#45;heritrix&#45;worker -->
<g id="edge17" class="edge">
<title>prometheus&#45;&gt;npld&#45;heritrix&#45;worker</title>
<path fill="none" stroke="black" stroke-dasharray="1,5" d="M282.14,-322.24C296.94,-305.91 319.35,-281.21 336.07,-262.77"/>
<polygon fill="black" stroke="black" points="338.73,-265.05 342.85,-255.29 333.54,-260.35 338.73,-265.05"/>
</g>
<!-- prometheus&#45;&gt;bypm&#45;heritrix&#45;worker -->
<g id="edge18" class="edge">
<title>prometheus&#45;&gt;bypm&#45;heritrix&#45;worker</title>
<path fill="none" stroke="black" stroke-dasharray="1,5" d="M253.58,-322.28C242.99,-308.55 227.39,-289.02 212.53,-273 209.25,-269.46 205.68,-265.84 202.1,-262.33"/>
<polygon fill="black" stroke="black" points="204.46,-259.74 194.82,-255.34 199.62,-264.79 204.46,-259.74"/>
</g>
<!-- 9191 -->
<g id="node12" class="node">
<title>9191</title>
<ellipse fill="none" stroke="black" cx="266.53" cy="-460.34" rx="34.39" ry="34.39"/>
<text text-anchor="middle" x="266.53" y="-456.64" font-family="Times,serif" font-size="14.00">9191</text>
</g>
<!-- 9191&#45;&gt;prometheus -->
<g id="edge19" class="edge">
<title>9191&#45;&gt;prometheus</title>
<path fill="none" stroke="black" d="M266.53,-425.87C266.53,-407.89 266.53,-385.99 266.53,-369"/>
<polygon fill="black" stroke="black" points="270.03,-368.64 266.53,-358.64 263.03,-368.64 270.03,-368.64"/>
<text text-anchor="middle" x="285.03" y="-396.69" font-family="Times,serif" font-size="14.00">9090</text>
</g>
</g>
</svg>
