<?xml version="1.0" encoding="UTF-8" standalone="no"?>
<!DOCTYPE svg PUBLIC "-//W3C//DTD SVG 1.1//EN"
 "http://www.w3.org/Graphics/SVG/1.1/DTD/svg11.dtd">
<!-- Generated by graphviz version 2.44.0 ()
 -->
<!-- Pages: 1 -->
<svg width="1744pt" height="348pt"
 viewBox="0.00 0.00 1744.45 347.79" xmlns="http://www.w3.org/2000/svg" xmlns:xlink="http://www.w3.org/1999/xlink">
<g id="graph0" class="graph" transform="scale(1 1) rotate(0) translate(36 311.79)">
<polygon fill="#ffffff" stroke="transparent" points="-36,36 -36,-311.79 1708.45,-311.79 1708.45,36 -36,36"/>
<!-- net: default -->
<g id="node1" class="node">
<title>net: default</title>
<polygon fill="none" stroke="black" points="1221.57,-23.56 1142,-36 1062.43,-23.56 1092.82,-3.44 1191.18,-3.44 1221.57,-23.56"/>
<text text-anchor="middle" x="1142" y="-14.3" font-family="Times,serif" font-size="14.00">net: default</text>
</g>
<!-- net: kafka -->
<g id="node2" class="node">
<title>net: kafka</title>
<polygon fill="none" stroke="black" points="1015.79,-23.56 946,-36 876.21,-23.56 902.87,-3.44 989.13,-3.44 1015.79,-23.56"/>
<text text-anchor="middle" x="946" y="-14.3" font-family="Times,serif" font-size="14.00">net: kafka</text>
</g>
<!-- npld&#45;dc&#45;heritrix&#45;worker -->
<g id="node3" class="node">
<title>npld&#45;dc&#45;heritrix&#45;worker</title>
<polygon fill="none" stroke="black" points="856,-139.45 674,-139.45 674,-135.45 670,-135.45 670,-131.45 674,-131.45 674,-111.45 670,-111.45 670,-107.45 674,-107.45 674,-103.45 856,-103.45 856,-139.45"/>
<polyline fill="none" stroke="black" points="674,-135.45 678,-135.45 678,-131.45 674,-131.45 "/>
<polyline fill="none" stroke="black" points="674,-111.45 678,-111.45 678,-107.45 674,-107.45 "/>
<text text-anchor="middle" x="765" y="-117.75" font-family="Times,serif" font-size="14.00">npld&#45;dc&#45;heritrix&#45;worker</text>
</g>
<!-- npld&#45;dc&#45;heritrix&#45;worker&#45;&gt;net: default -->
<g id="edge12" class="edge">
<title>npld&#45;dc&#45;heritrix&#45;worker&#45;&gt;net: default</title>
<path fill="none" stroke="black" d="M828.53,-103.35C902.78,-83.37 1024.12,-50.72 1092,-32.46"/>
<polygon fill="black" stroke="black" points="1093.27,-35.74 1102.01,-29.76 1091.45,-28.98 1093.27,-35.74"/>
</g>
<!-- npld&#45;dc&#45;heritrix&#45;worker&#45;&gt;net: kafka -->
<g id="edge13" class="edge">
<title>npld&#45;dc&#45;heritrix&#45;worker&#45;&gt;net: kafka</title>
<path fill="none" stroke="black" d="M795.7,-103.24C828.62,-84.79 880.63,-55.64 914.02,-36.92"/>
<polygon fill="black" stroke="black" points="915.9,-39.88 922.92,-31.94 912.48,-33.77 915.9,-39.88"/>
</g>
<!-- clamd -->
<g id="node4" class="node">
<title>clamd</title>
<polygon fill="none" stroke="black" points="726.5,-36 667.5,-36 667.5,-32 663.5,-32 663.5,-28 667.5,-28 667.5,-8 663.5,-8 663.5,-4 667.5,-4 667.5,0 726.5,0 726.5,-36"/>
<polyline fill="none" stroke="black" points="667.5,-32 671.5,-32 671.5,-28 667.5,-28 "/>
<polyline fill="none" stroke="black" points="667.5,-8 671.5,-8 671.5,-4 667.5,-4 "/>
<text text-anchor="middle" x="697" y="-14.3" font-family="Times,serif" font-size="14.00">clamd</text>
</g>
<!-- npld&#45;dc&#45;heritrix&#45;worker&#45;&gt;clamd -->
<g id="edge1" class="edge">
<title>npld&#45;dc&#45;heritrix&#45;worker&#45;&gt;clamd</title>
<path fill="none" stroke="black" stroke-dasharray="1,5" d="M753.46,-103.24C742.72,-87.21 726.55,-63.09 714.27,-44.76"/>
<polygon fill="black" stroke="black" points="717.07,-42.65 708.59,-36.29 711.25,-46.55 717.07,-42.65"/>
</g>
<!-- kafka -->
<g id="node5" class="node">
<title>kafka</title>
<polygon fill="none" stroke="black" points="799.5,-36 744.5,-36 744.5,-32 740.5,-32 740.5,-28 744.5,-28 744.5,-8 740.5,-8 740.5,-4 744.5,-4 744.5,0 799.5,0 799.5,-36"/>
<polyline fill="none" stroke="black" points="744.5,-32 748.5,-32 748.5,-28 744.5,-28 "/>
<polyline fill="none" stroke="black" points="744.5,-8 748.5,-8 748.5,-4 744.5,-4 "/>
<text text-anchor="middle" x="772" y="-14.3" font-family="Times,serif" font-size="14.00">kafka</text>
</g>
<!-- npld&#45;dc&#45;heritrix&#45;worker&#45;&gt;kafka -->
<g id="edge2" class="edge">
<title>npld&#45;dc&#45;heritrix&#45;worker&#45;&gt;kafka</title>
<path fill="none" stroke="black" stroke-dasharray="1,5" d="M766.19,-103.24C767.26,-87.64 768.87,-64.4 770.12,-46.28"/>
<polygon fill="black" stroke="black" points="773.61,-46.51 770.81,-36.29 766.63,-46.03 773.61,-46.51"/>
</g>
<!-- cdxserver -->
<g id="node6" class="node">
<title>cdxserver</title>
<polygon fill="none" stroke="black" points="1341.5,-36 1254.5,-36 1254.5,-32 1250.5,-32 1250.5,-28 1254.5,-28 1254.5,-8 1250.5,-8 1250.5,-4 1254.5,-4 1254.5,0 1341.5,0 1341.5,-36"/>
<polyline fill="none" stroke="black" points="1254.5,-32 1258.5,-32 1258.5,-28 1254.5,-28 "/>
<polyline fill="none" stroke="black" points="1254.5,-8 1258.5,-8 1258.5,-4 1254.5,-4 "/>
<text text-anchor="middle" x="1298" y="-14.3" font-family="Times,serif" font-size="14.00">cdxserver</text>
</g>
<!-- npld&#45;dc&#45;heritrix&#45;worker&#45;&gt;cdxserver -->
<g id="edge3" class="edge">
<title>npld&#45;dc&#45;heritrix&#45;worker&#45;&gt;cdxserver</title>
<path fill="none" stroke="black" stroke-dasharray="1,5" d="M856.01,-105.87C950.21,-90.34 1101.44,-64.14 1231,-36 1235.41,-35.04 1239.96,-34 1244.53,-32.92"/>
<polygon fill="black" stroke="black" points="1245.6,-36.26 1254.49,-30.5 1243.95,-29.46 1245.6,-36.26"/>
</g>
<!-- /heritrix/output -->
<g id="node7" class="node">
<title>/heritrix/output</title>
<polygon fill="none" stroke="black" points="1031.5,-259.34 1028.5,-263.34 1007.5,-263.34 1004.5,-259.34 904.5,-259.34 904.5,-223.34 1031.5,-223.34 1031.5,-259.34"/>
<text text-anchor="middle" x="968" y="-237.64" font-family="Times,serif" font-size="14.00">/heritrix/output</text>
</g>
<!-- /heritrix/output&#45;&gt;npld&#45;dc&#45;heritrix&#45;worker -->
<g id="edge4" class="edge">
<title>/heritrix/output&#45;&gt;npld&#45;dc&#45;heritrix&#45;worker</title>
<path fill="none" stroke="black" stroke-dasharray="5,2" d="M929.47,-217.96C893.28,-196.95 839.45,-165.69 803.33,-144.71"/>
<polygon fill="black" stroke="black" points="928.08,-221.2 938.48,-223.2 931.59,-215.15 928.08,-221.2"/>
<polygon fill="black" stroke="black" points="804.96,-141.61 794.55,-139.61 801.44,-147.66 804.96,-141.61"/>
</g>
<!-- /heritrix/state -->
<g id="node8" class="node">
<title>/heritrix/state</title>
<polygon fill="none" stroke="black" points="116,-259.34 113,-263.34 92,-263.34 89,-259.34 0,-259.34 0,-223.34 116,-223.34 116,-259.34"/>
<text text-anchor="middle" x="58" y="-237.64" font-family="Times,serif" font-size="14.00">/heritrix/state</text>
</g>
<!-- /heritrix/state&#45;&gt;npld&#45;dc&#45;heritrix&#45;worker -->
<g id="edge5" class="edge">
<title>/heritrix/state&#45;&gt;npld&#45;dc&#45;heritrix&#45;worker</title>
<path fill="none" stroke="black" stroke-dasharray="5,2" d="M96.12,-218.79C105.35,-214.29 115.34,-209.98 125,-206.89 308.99,-148.14 535.29,-130.22 663.56,-124.79"/>
<polygon fill="black" stroke="black" points="94.53,-215.67 87.19,-223.32 97.69,-221.92 94.53,-215.67"/>
<polygon fill="black" stroke="black" points="663.91,-128.27 673.76,-124.37 663.63,-121.28 663.91,-128.27"/>
</g>
<!-- /heritrix/scratch -->
<g id="node9" class="node">
<title>/heritrix/scratch</title>
<polygon fill="none" stroke="black" points="266,-259.34 263,-263.34 242,-263.34 239,-259.34 134,-259.34 134,-223.34 266,-223.34 266,-259.34"/>
<text text-anchor="middle" x="200" y="-237.64" font-family="Times,serif" font-size="14.00">/heritrix/scratch</text>
</g>
<!-- /heritrix/scratch&#45;&gt;npld&#45;dc&#45;heritrix&#45;worker -->
<g id="edge6" class="edge">
<title>/heritrix/scratch&#45;&gt;npld&#45;dc&#45;heritrix&#45;worker</title>
<path fill="none" stroke="black" stroke-dasharray="5,2" d="M244.64,-219.07C254.53,-214.75 265.02,-210.44 275,-206.89 404.54,-160.8 562.57,-139.38 663.49,-129.76"/>
<polygon fill="black" stroke="black" points="243.1,-215.93 235.4,-223.2 245.96,-222.32 243.1,-215.93"/>
<polygon fill="black" stroke="black" points="664.05,-133.23 673.68,-128.81 663.4,-126.26 664.05,-133.23"/>
</g>
<!-- ./shared -->
<g id="node10" class="node">
<title>./shared</title>
<polygon fill="none" stroke="black" points="358,-259.34 355,-263.34 334,-263.34 331,-259.34 284,-259.34 284,-223.34 358,-223.34 358,-259.34"/>
<text text-anchor="middle" x="321" y="-237.64" font-family="Times,serif" font-size="14.00">./shared</text>
</g>
<!-- ./shared&#45;&gt;npld&#45;dc&#45;heritrix&#45;worker -->
<g id="edge7" class="edge">
<title>./shared&#45;&gt;npld&#45;dc&#45;heritrix&#45;worker</title>
<path fill="none" stroke="black" stroke-dasharray="5,2" d="M351.53,-217.1C373.08,-202.02 403.31,-183.46 433,-173.89 508.25,-149.64 596.88,-136.65 663.63,-129.79"/>
<polygon fill="black" stroke="black" points="349.23,-214.44 343.14,-223.1 353.31,-220.13 349.23,-214.44"/>
<polygon fill="black" stroke="black" points="664.13,-133.26 673.74,-128.78 663.44,-126.29 664.13,-133.26"/>
<text text-anchor="middle" x="460" y="-177.69" font-family="Times,serif" font-size="14.00">/shared</text>
</g>
<!-- ./heritrix/uriuniqfilter&#45;bloom.xml -->
<g id="node11" class="node">
<title>./heritrix/uriuniqfilter&#45;bloom.xml</title>
<polygon fill="none" stroke="black" points="625.5,-259.34 622.5,-263.34 601.5,-263.34 598.5,-259.34 376.5,-259.34 376.5,-223.34 625.5,-223.34 625.5,-259.34"/>
<text text-anchor="middle" x="501" y="-237.64" font-family="Times,serif" font-size="14.00">./heritrix/uriuniqfilter&#45;bloom.xml</text>
</g>
<!-- ./heritrix/uriuniqfilter&#45;bloom.xml&#45;&gt;npld&#45;dc&#45;heritrix&#45;worker -->
<g id="edge8" class="edge">
<title>./heritrix/uriuniqfilter&#45;bloom.xml&#45;&gt;npld&#45;dc&#45;heritrix&#45;worker</title>
<path fill="none" stroke="black" stroke-dasharray="5,2" d="M491.89,-213.03C489.28,-199.83 489.18,-184.57 498,-173.89 519.08,-148.36 597.25,-135.36 663.6,-128.83"/>
<polygon fill="black" stroke="black" points="488.57,-214.2 494.38,-223.05 495.36,-212.5 488.57,-214.2"/>
<polygon fill="black" stroke="black" points="664.09,-132.3 673.72,-127.87 663.43,-125.33 664.09,-132.3"/>
<text text-anchor="middle" x="608" y="-177.69" font-family="Times,serif" font-size="14.00">/jobs/frequent/uriuniqfilter.xml</text>
</g>
<!-- 8443 -->
<g id="node12" class="node">
<title>8443</title>
<ellipse fill="none" stroke="black" cx="678" cy="-241.34" rx="34.39" ry="34.39"/>
<text text-anchor="middle" x="678" y="-237.64" font-family="Times,serif" font-size="14.00">8443</text>
</g>
<!-- 8443&#45;&gt;npld&#45;dc&#45;heritrix&#45;worker -->
<g id="edge9" class="edge">
<title>8443&#45;&gt;npld&#45;dc&#45;heritrix&#45;worker</title>
<path fill="none" stroke="black" d="M700.62,-215.25C707.71,-207.04 715.39,-197.75 722,-188.89 731.72,-175.87 741.64,-160.69 749.5,-148.13"/>
<polygon fill="black" stroke="black" points="752.54,-149.87 754.82,-139.52 746.58,-146.19 752.54,-149.87"/>
</g>
<!-- 8484 -->
<g id="node13" class="node">
<title>8484</title>
<ellipse fill="none" stroke="black" cx="765" cy="-241.34" rx="34.39" ry="34.39"/>
<text text-anchor="middle" x="765" y="-237.64" font-family="Times,serif" font-size="14.00">8484</text>
</g>
<!-- 8484&#45;&gt;npld&#45;dc&#45;heritrix&#45;worker -->
<g id="edge10" class="edge">
<title>8484&#45;&gt;npld&#45;dc&#45;heritrix&#45;worker</title>
<path fill="none" stroke="black" d="M765,-206.87C765,-188.89 765,-166.99 765,-150"/>
<polygon fill="black" stroke="black" points="768.5,-149.64 765,-139.64 761.5,-149.64 768.5,-149.64"/>
</g>
<!-- 9118 -->
<g id="node14" class="node">
<title>9118</title>
<ellipse fill="none" stroke="black" cx="852" cy="-241.34" rx="34.39" ry="34.39"/>
<text text-anchor="middle" x="852" y="-237.64" font-family="Times,serif" font-size="14.00">9118</text>
</g>
<!-- 9118&#45;&gt;npld&#45;dc&#45;heritrix&#45;worker -->
<g id="edge11" class="edge">
<title>9118&#45;&gt;npld&#45;dc&#45;heritrix&#45;worker</title>
<path fill="none" stroke="black" d="M831.82,-213C817.37,-193.41 798.04,-167.22 783.89,-148.05"/>
<polygon fill="black" stroke="black" points="786.54,-145.75 777.79,-139.78 780.91,-149.9 786.54,-145.75"/>
</g>
<!-- /opt/data/cdx -->
<g id="node15" class="node">
<title>/opt/data/cdx</title>
<polygon fill="none" stroke="black" points="1353,-139.45 1350,-143.45 1329,-143.45 1326,-139.45 1243,-139.45 1243,-103.45 1353,-103.45 1353,-139.45"/>
<text text-anchor="middle" x="1298" y="-117.75" font-family="Times,serif" font-size="14.00">/opt/data/cdx</text>
</g>
<!-- /opt/data/cdx&#45;&gt;cdxserver -->
<g id="edge14" class="edge">
<title>/opt/data/cdx&#45;&gt;cdxserver</title>
<path fill="none" stroke="black" stroke-dasharray="5,2" d="M1298,-93.01C1298,-78.62 1298,-61.02 1298,-46.6"/>
<polygon fill="black" stroke="black" points="1294.5,-93.24 1298,-103.24 1301.5,-93.24 1294.5,-93.24"/>
<polygon fill="black" stroke="black" points="1301.5,-46.29 1298,-36.29 1294.5,-46.29 1301.5,-46.29"/>
<text text-anchor="middle" x="1330.5" y="-57.8" font-family="Times,serif" font-size="14.00">/cdx&#45;data</text>
</g>
<!-- 9090 -->
<g id="node16" class="node">
<title>9090</title>
<ellipse fill="none" stroke="black" cx="1405" cy="-121.45" rx="34.39" ry="34.39"/>
<text text-anchor="middle" x="1405" y="-117.75" font-family="Times,serif" font-size="14.00">9090</text>
</g>
<!-- 9090&#45;&gt;cdxserver -->
<g id="edge15" class="edge">
<title>9090&#45;&gt;cdxserver</title>
<path fill="none" stroke="black" d="M1392.01,-89.42C1385.79,-77.26 1377.4,-63.89 1367,-54 1362.03,-49.27 1356.3,-45.04 1350.3,-41.29"/>
<polygon fill="black" stroke="black" points="1351.81,-38.12 1341.4,-36.14 1348.3,-44.18 1351.81,-38.12"/>
<text text-anchor="middle" x="1397.5" y="-57.8" font-family="Times,serif" font-size="14.00">8080</text>
</g>
<!-- prometheus -->
<g id="node17" class="node">
<title>prometheus</title>
<polygon fill="none" stroke="black" points="1225,-139.45 1123,-139.45 1123,-135.45 1119,-135.45 1119,-131.45 1123,-131.45 1123,-111.45 1119,-111.45 1119,-107.45 1123,-107.45 1123,-103.45 1225,-103.45 1225,-139.45"/>
<polyline fill="none" stroke="black" points="1123,-135.45 1127,-135.45 1127,-131.45 1123,-131.45 "/>
<polyline fill="none" stroke="black" points="1123,-111.45 1127,-111.45 1127,-107.45 1123,-107.45 "/>
<text text-anchor="middle" x="1174" y="-117.75" font-family="Times,serif" font-size="14.00">prometheus</text>
</g>
<!-- prometheus&#45;&gt;net: default -->
<g id="edge19" class="edge">
<title>prometheus&#45;&gt;net: default</title>
<path fill="none" stroke="black" d="M1168.57,-103.24C1163.54,-87.29 1155.98,-63.33 1150.21,-45.04"/>
<polygon fill="black" stroke="black" points="1153.48,-43.77 1147.14,-35.29 1146.81,-45.87 1153.48,-43.77"/>
</g>
<!-- prometheus&#45;&gt;net: kafka -->
<g id="edge20" class="edge">
<title>prometheus&#45;&gt;net: kafka</title>
<path fill="none" stroke="black" d="M1135.58,-103.35C1092.96,-84.39 1024.68,-54.01 982.75,-35.35"/>
<polygon fill="black" stroke="black" points="984.01,-32.08 973.45,-31.21 981.17,-38.48 984.01,-32.08"/>
</g>
<!-- /heritrix/output/prometheus/config -->
<g id="node18" class="node">
<title>/heritrix/output/prometheus/config</title>
<polygon fill="none" stroke="black" points="1314,-259.34 1311,-263.34 1290,-263.34 1287,-259.34 1050,-259.34 1050,-223.34 1314,-223.34 1314,-259.34"/>
<text text-anchor="middle" x="1182" y="-237.64" font-family="Times,serif" font-size="14.00">/heritrix/output/prometheus/config</text>
</g>
<!-- /heritrix/output/prometheus/config&#45;&gt;prometheus -->
<g id="edge16" class="edge">
<title>/heritrix/output/prometheus/config&#45;&gt;prometheus</title>
<path fill="none" stroke="black" stroke-dasharray="5,2" d="M1180.16,-213.19C1178.87,-194.15 1177.15,-168.81 1175.85,-149.75"/>
<polygon fill="black" stroke="black" points="1176.67,-213.46 1180.84,-223.2 1183.65,-212.98 1176.67,-213.46"/>
<polygon fill="black" stroke="black" points="1179.33,-149.35 1175.16,-139.61 1172.35,-149.82 1179.33,-149.35"/>
<text text-anchor="middle" x="1236.5" y="-177.69" font-family="Times,serif" font-size="14.00">/etc/prometheus</text>
</g>
<!-- /heritrix/output/prometheus/data -->
<g id="node19" class="node">
<title>/heritrix/output/prometheus/data</title>
<polygon fill="none" stroke="black" points="1585.5,-259.34 1582.5,-263.34 1561.5,-263.34 1558.5,-259.34 1332.5,-259.34 1332.5,-223.34 1585.5,-223.34 1585.5,-259.34"/>
<text text-anchor="middle" x="1459" y="-237.64" font-family="Times,serif" font-size="14.00">/heritrix/output/prometheus/data</text>
</g>
<!-- /heritrix/output/prometheus/data&#45;&gt;prometheus -->
<g id="edge17" class="edge">
<title>/heritrix/output/prometheus/data&#45;&gt;prometheus</title>
<path fill="none" stroke="black" stroke-dasharray="5,2" d="M1412.25,-219.13C1380.66,-205.25 1337.78,-187.26 1299,-173.89 1270.66,-164.13 1261.73,-167.27 1234,-155.89 1226.07,-152.64 1217.86,-148.58 1210.16,-144.42"/>
<polygon fill="black" stroke="black" points="1411.12,-222.46 1421.68,-223.3 1413.95,-216.06 1411.12,-222.46"/>
<polygon fill="black" stroke="black" points="1211.83,-141.34 1201.4,-139.53 1208.42,-147.45 1211.83,-141.34"/>
<text text-anchor="middle" x="1384.5" y="-177.69" font-family="Times,serif" font-size="14.00">/prometheus</text>
</g>
<!-- 9191 -->
<g id="node20" class="node">
<title>9191</title>
<ellipse fill="none" stroke="black" cx="1638" cy="-241.34" rx="34.39" ry="34.39"/>
<text text-anchor="middle" x="1638" y="-237.64" font-family="Times,serif" font-size="14.00">9191</text>
</g>
<!-- 9191&#45;&gt;prometheus -->
<g id="edge18" class="edge">
<title>9191&#45;&gt;prometheus</title>
<path fill="none" stroke="black" d="M1612.88,-217.76C1607.29,-213.63 1601.19,-209.74 1595,-206.89 1528.66,-176.34 1506.27,-184.52 1434,-173.89 1345.7,-160.91 1319.28,-182.2 1234,-155.89 1225.22,-153.19 1216.3,-149.08 1208.11,-144.66"/>
<polygon fill="black" stroke="black" points="1209.64,-141.51 1199.22,-139.6 1206.17,-147.59 1209.64,-141.51"/>
<text text-anchor="middle" x="1562.5" y="-177.69" font-family="Times,serif" font-size="14.00">9090</text>
</g>
</g>
</svg>
