<?xml version="1.0" encoding="utf-8" standalone="no"?>
<!DOCTYPE svg PUBLIC "-//W3C//DTD SVG 1.1//EN"
  "http://www.w3.org/Graphics/SVG/1.1/DTD/svg11.dtd">
<!-- Created with matplotlib (https://matplotlib.org/) -->
<svg height="511.092187pt" version="1.1" viewBox="0 0 710.934375 511.092187" width="710.934375pt" xmlns="http://www.w3.org/2000/svg" xmlns:xlink="http://www.w3.org/1999/xlink">
 <metadata>
  <rdf:RDF xmlns:cc="http://creativecommons.org/ns#" xmlns:dc="http://purl.org/dc/elements/1.1/" xmlns:rdf="http://www.w3.org/1999/02/22-rdf-syntax-ns#">
   <cc:Work>
    <dc:type rdf:resource="http://purl.org/dc/dcmitype/StillImage"/>
    <dc:date>2020-11-20T14:59:27.014627</dc:date>
    <dc:format>image/svg+xml</dc:format>
    <dc:creator>
     <cc:Agent>
      <dc:title>Matplotlib v3.3.3, https://matplotlib.org/</dc:title>
     </cc:Agent>
    </dc:creator>
   </cc:Work>
  </rdf:RDF>
 </metadata>
 <defs>
  <style type="text/css">*{stroke-linecap:butt;stroke-linejoin:round;}</style>
 </defs>
 <g id="figure_1">
  <g id="patch_1">
   <path d="M 0 511.092187 
L 710.934375 511.092187 
L 710.934375 0 
L 0 0 
z
" style="fill:#ffffff;"/>
  </g>
  <g id="axes_1">
   <g id="patch_2">
    <path d="M 34.134375 465.838125 
L 703.734375 465.838125 
L 703.734375 22.318125 
L 34.134375 22.318125 
z
" style="fill:#ffffff;"/>
   </g>
   <g id="matplotlib.axis_1">
    <g id="xtick_1">
     <g id="line2d_1">
      <path clip-path="url(#p5516b4e62e)" d="M 34.134375 465.838125 
L 34.134375 22.318125 
" style="fill:none;stroke:#b0b0b0;stroke-dasharray:3.7,1.6;stroke-dashoffset:0;"/>
     </g>
     <g id="line2d_2">
      <defs>
       <path d="M 0 0 
L 0 -3.5 
" id="m725832a863" style="stroke:#000000;stroke-width:0.8;"/>
      </defs>
      <g>
       <use style="stroke:#000000;stroke-width:0.8;" x="34.134375" xlink:href="#m725832a863" y="465.838125"/>
      </g>
     </g>
     <g id="line2d_3">
      <defs>
       <path d="M 0 0 
L 0 3.5 
" id="mbd8925ef7a" style="stroke:#000000;stroke-width:0.8;"/>
      </defs>
      <g>
       <use style="stroke:#000000;stroke-width:0.8;" x="34.134375" xlink:href="#mbd8925ef7a" y="22.318125"/>
      </g>
     </g>
     <g id="text_1">
      <!-- Genesis -->
      <g transform="translate(34.134375 476.936562)scale(0.1 -0.1)">
       <defs>
        <path d="M 59.515625 10.40625 
L 59.515625 29.984375 
L 43.40625 29.984375 
L 43.40625 38.09375 
L 69.28125 38.09375 
L 69.28125 6.78125 
Q 63.578125 2.734375 56.6875 0.65625 
Q 49.8125 -1.421875 42 -1.421875 
Q 24.90625 -1.421875 15.25 8.5625 
Q 5.609375 18.5625 5.609375 36.375 
Q 5.609375 54.25 15.25 64.234375 
Q 24.90625 74.21875 42 74.21875 
Q 49.125 74.21875 55.546875 72.453125 
Q 61.96875 70.703125 67.390625 67.28125 
L 67.390625 56.78125 
Q 61.921875 61.421875 55.765625 63.765625 
Q 49.609375 66.109375 42.828125 66.109375 
Q 29.4375 66.109375 22.71875 58.640625 
Q 16.015625 51.171875 16.015625 36.375 
Q 16.015625 21.625 22.71875 14.15625 
Q 29.4375 6.6875 42.828125 6.6875 
Q 48.046875 6.6875 52.140625 7.59375 
Q 56.25 8.5 59.515625 10.40625 
z
" id="DejaVuSans-71"/>
        <path d="M 56.203125 29.59375 
L 56.203125 25.203125 
L 14.890625 25.203125 
Q 15.484375 15.921875 20.484375 11.0625 
Q 25.484375 6.203125 34.421875 6.203125 
Q 39.59375 6.203125 44.453125 7.46875 
Q 49.3125 8.734375 54.109375 11.28125 
L 54.109375 2.78125 
Q 49.265625 0.734375 44.1875 -0.34375 
Q 39.109375 -1.421875 33.890625 -1.421875 
Q 20.796875 -1.421875 13.15625 6.1875 
Q 5.515625 13.8125 5.515625 26.8125 
Q 5.515625 40.234375 12.765625 48.109375 
Q 20.015625 56 32.328125 56 
Q 43.359375 56 49.78125 48.890625 
Q 56.203125 41.796875 56.203125 29.59375 
z
M 47.21875 32.234375 
Q 47.125 39.59375 43.09375 43.984375 
Q 39.0625 48.390625 32.421875 48.390625 
Q 24.90625 48.390625 20.390625 44.140625 
Q 15.875 39.890625 15.1875 32.171875 
z
" id="DejaVuSans-101"/>
        <path d="M 54.890625 33.015625 
L 54.890625 0 
L 45.90625 0 
L 45.90625 32.71875 
Q 45.90625 40.484375 42.875 44.328125 
Q 39.84375 48.1875 33.796875 48.1875 
Q 26.515625 48.1875 22.3125 43.546875 
Q 18.109375 38.921875 18.109375 30.90625 
L 18.109375 0 
L 9.078125 0 
L 9.078125 54.6875 
L 18.109375 54.6875 
L 18.109375 46.1875 
Q 21.34375 51.125 25.703125 53.5625 
Q 30.078125 56 35.796875 56 
Q 45.21875 56 50.046875 50.171875 
Q 54.890625 44.34375 54.890625 33.015625 
z
" id="DejaVuSans-110"/>
        <path d="M 44.28125 53.078125 
L 44.28125 44.578125 
Q 40.484375 46.53125 36.375 47.5 
Q 32.28125 48.484375 27.875 48.484375 
Q 21.1875 48.484375 17.84375 46.4375 
Q 14.5 44.390625 14.5 40.28125 
Q 14.5 37.15625 16.890625 35.375 
Q 19.28125 33.59375 26.515625 31.984375 
L 29.59375 31.296875 
Q 39.15625 29.25 43.1875 25.515625 
Q 47.21875 21.78125 47.21875 15.09375 
Q 47.21875 7.46875 41.1875 3.015625 
Q 35.15625 -1.421875 24.609375 -1.421875 
Q 20.21875 -1.421875 15.453125 -0.5625 
Q 10.6875 0.296875 5.421875 2 
L 5.421875 11.28125 
Q 10.40625 8.6875 15.234375 7.390625 
Q 20.0625 6.109375 24.8125 6.109375 
Q 31.15625 6.109375 34.5625 8.28125 
Q 37.984375 10.453125 37.984375 14.40625 
Q 37.984375 18.0625 35.515625 20.015625 
Q 33.0625 21.96875 24.703125 23.78125 
L 21.578125 24.515625 
Q 13.234375 26.265625 9.515625 29.90625 
Q 5.8125 33.546875 5.8125 39.890625 
Q 5.8125 47.609375 11.28125 51.796875 
Q 16.75 56 26.8125 56 
Q 31.78125 56 36.171875 55.265625 
Q 40.578125 54.546875 44.28125 53.078125 
z
" id="DejaVuSans-115"/>
        <path d="M 9.421875 54.6875 
L 18.40625 54.6875 
L 18.40625 0 
L 9.421875 0 
z
M 9.421875 75.984375 
L 18.40625 75.984375 
L 18.40625 64.59375 
L 9.421875 64.59375 
z
" id="DejaVuSans-105"/>
       </defs>
       <use xlink:href="#DejaVuSans-71"/>
       <use x="77.490234" xlink:href="#DejaVuSans-101"/>
       <use x="139.013672" xlink:href="#DejaVuSans-110"/>
       <use x="202.392578" xlink:href="#DejaVuSans-101"/>
       <use x="263.916016" xlink:href="#DejaVuSans-115"/>
       <use x="316.015625" xlink:href="#DejaVuSans-105"/>
       <use x="343.798828" xlink:href="#DejaVuSans-115"/>
      </g>
     </g>
    </g>
    <g id="xtick_2">
     <g id="line2d_4">
      <path clip-path="url(#p5516b4e62e)" d="M 201.534375 465.838125 
L 201.534375 22.318125 
" style="fill:none;stroke:#b0b0b0;stroke-dasharray:3.7,1.6;stroke-dashoffset:0;"/>
     </g>
     <g id="line2d_5">
      <g>
       <use style="stroke:#000000;stroke-width:0.8;" x="201.534375" xlink:href="#m725832a863" y="465.838125"/>
      </g>
     </g>
     <g id="line2d_6">
      <g>
       <use style="stroke:#000000;stroke-width:0.8;" x="201.534375" xlink:href="#mbd8925ef7a" y="22.318125"/>
      </g>
     </g>
     <g id="text_2">
      <!-- Custom-Built -->
      <g transform="translate(201.534375 476.936562)scale(0.1 -0.1)">
       <defs>
        <path d="M 64.40625 67.28125 
L 64.40625 56.890625 
Q 59.421875 61.53125 53.78125 63.8125 
Q 48.140625 66.109375 41.796875 66.109375 
Q 29.296875 66.109375 22.65625 58.46875 
Q 16.015625 50.828125 16.015625 36.375 
Q 16.015625 21.96875 22.65625 14.328125 
Q 29.296875 6.6875 41.796875 6.6875 
Q 48.140625 6.6875 53.78125 8.984375 
Q 59.421875 11.28125 64.40625 15.921875 
L 64.40625 5.609375 
Q 59.234375 2.09375 53.4375 0.328125 
Q 47.65625 -1.421875 41.21875 -1.421875 
Q 24.65625 -1.421875 15.125 8.703125 
Q 5.609375 18.84375 5.609375 36.375 
Q 5.609375 53.953125 15.125 64.078125 
Q 24.65625 74.21875 41.21875 74.21875 
Q 47.75 74.21875 53.53125 72.484375 
Q 59.328125 70.75 64.40625 67.28125 
z
" id="DejaVuSans-67"/>
        <path d="M 8.5 21.578125 
L 8.5 54.6875 
L 17.484375 54.6875 
L 17.484375 21.921875 
Q 17.484375 14.15625 20.5 10.265625 
Q 23.53125 6.390625 29.59375 6.390625 
Q 36.859375 6.390625 41.078125 11.03125 
Q 45.3125 15.671875 45.3125 23.6875 
L 45.3125 54.6875 
L 54.296875 54.6875 
L 54.296875 0 
L 45.3125 0 
L 45.3125 8.40625 
Q 42.046875 3.421875 37.71875 1 
Q 33.40625 -1.421875 27.6875 -1.421875 
Q 18.265625 -1.421875 13.375 4.4375 
Q 8.5 10.296875 8.5 21.578125 
z
M 31.109375 56 
z
" id="DejaVuSans-117"/>
        <path d="M 18.3125 70.21875 
L 18.3125 54.6875 
L 36.8125 54.6875 
L 36.8125 47.703125 
L 18.3125 47.703125 
L 18.3125 18.015625 
Q 18.3125 11.328125 20.140625 9.421875 
Q 21.96875 7.515625 27.59375 7.515625 
L 36.8125 7.515625 
L 36.8125 0 
L 27.59375 0 
Q 17.1875 0 13.234375 3.875 
Q 9.28125 7.765625 9.28125 18.015625 
L 9.28125 47.703125 
L 2.6875 47.703125 
L 2.6875 54.6875 
L 9.28125 54.6875 
L 9.28125 70.21875 
z
" id="DejaVuSans-116"/>
        <path d="M 30.609375 48.390625 
Q 23.390625 48.390625 19.1875 42.75 
Q 14.984375 37.109375 14.984375 27.296875 
Q 14.984375 17.484375 19.15625 11.84375 
Q 23.34375 6.203125 30.609375 6.203125 
Q 37.796875 6.203125 41.984375 11.859375 
Q 46.1875 17.53125 46.1875 27.296875 
Q 46.1875 37.015625 41.984375 42.703125 
Q 37.796875 48.390625 30.609375 48.390625 
z
M 30.609375 56 
Q 42.328125 56 49.015625 48.375 
Q 55.71875 40.765625 55.71875 27.296875 
Q 55.71875 13.875 49.015625 6.21875 
Q 42.328125 -1.421875 30.609375 -1.421875 
Q 18.84375 -1.421875 12.171875 6.21875 
Q 5.515625 13.875 5.515625 27.296875 
Q 5.515625 40.765625 12.171875 48.375 
Q 18.84375 56 30.609375 56 
z
" id="DejaVuSans-111"/>
        <path d="M 52 44.1875 
Q 55.375 50.25 60.0625 53.125 
Q 64.75 56 71.09375 56 
Q 79.640625 56 84.28125 50.015625 
Q 88.921875 44.046875 88.921875 33.015625 
L 88.921875 0 
L 79.890625 0 
L 79.890625 32.71875 
Q 79.890625 40.578125 77.09375 44.375 
Q 74.3125 48.1875 68.609375 48.1875 
Q 61.625 48.1875 57.5625 43.546875 
Q 53.515625 38.921875 53.515625 30.90625 
L 53.515625 0 
L 44.484375 0 
L 44.484375 32.71875 
Q 44.484375 40.625 41.703125 44.40625 
Q 38.921875 48.1875 33.109375 48.1875 
Q 26.21875 48.1875 22.15625 43.53125 
Q 18.109375 38.875 18.109375 30.90625 
L 18.109375 0 
L 9.078125 0 
L 9.078125 54.6875 
L 18.109375 54.6875 
L 18.109375 46.1875 
Q 21.1875 51.21875 25.484375 53.609375 
Q 29.78125 56 35.6875 56 
Q 41.65625 56 45.828125 52.96875 
Q 50 49.953125 52 44.1875 
z
" id="DejaVuSans-109"/>
        <path d="M 4.890625 31.390625 
L 31.203125 31.390625 
L 31.203125 23.390625 
L 4.890625 23.390625 
z
" id="DejaVuSans-45"/>
        <path d="M 19.671875 34.8125 
L 19.671875 8.109375 
L 35.5 8.109375 
Q 43.453125 8.109375 47.28125 11.40625 
Q 51.125 14.703125 51.125 21.484375 
Q 51.125 28.328125 47.28125 31.5625 
Q 43.453125 34.8125 35.5 34.8125 
z
M 19.671875 64.796875 
L 19.671875 42.828125 
L 34.28125 42.828125 
Q 41.5 42.828125 45.03125 45.53125 
Q 48.578125 48.25 48.578125 53.8125 
Q 48.578125 59.328125 45.03125 62.0625 
Q 41.5 64.796875 34.28125 64.796875 
z
M 9.8125 72.90625 
L 35.015625 72.90625 
Q 46.296875 72.90625 52.390625 68.21875 
Q 58.5 63.53125 58.5 54.890625 
Q 58.5 48.1875 55.375 44.234375 
Q 52.25 40.28125 46.1875 39.3125 
Q 53.46875 37.75 57.5 32.78125 
Q 61.53125 27.828125 61.53125 20.40625 
Q 61.53125 10.640625 54.890625 5.3125 
Q 48.25 0 35.984375 0 
L 9.8125 0 
z
" id="DejaVuSans-66"/>
        <path d="M 9.421875 75.984375 
L 18.40625 75.984375 
L 18.40625 0 
L 9.421875 0 
z
" id="DejaVuSans-108"/>
       </defs>
       <use xlink:href="#DejaVuSans-67"/>
       <use x="69.824219" xlink:href="#DejaVuSans-117"/>
       <use x="133.203125" xlink:href="#DejaVuSans-115"/>
       <use x="185.302734" xlink:href="#DejaVuSans-116"/>
       <use x="224.511719" xlink:href="#DejaVuSans-111"/>
       <use x="285.693359" xlink:href="#DejaVuSans-109"/>
       <use x="383.105469" xlink:href="#DejaVuSans-45"/>
       <use x="415.564453" xlink:href="#DejaVuSans-66"/>
       <use x="484.167969" xlink:href="#DejaVuSans-117"/>
       <use x="547.546875" xlink:href="#DejaVuSans-105"/>
       <use x="575.330078" xlink:href="#DejaVuSans-108"/>
       <use x="603.113281" xlink:href="#DejaVuSans-116"/>
      </g>
     </g>
    </g>
    <g id="xtick_3">
     <g id="line2d_7">
      <path clip-path="url(#p5516b4e62e)" d="M 368.934375 465.838125 
L 368.934375 22.318125 
" style="fill:none;stroke:#b0b0b0;stroke-dasharray:3.7,1.6;stroke-dashoffset:0;"/>
     </g>
     <g id="line2d_8">
      <g>
       <use style="stroke:#000000;stroke-width:0.8;" x="368.934375" xlink:href="#m725832a863" y="465.838125"/>
      </g>
     </g>
     <g id="line2d_9">
      <g>
       <use style="stroke:#000000;stroke-width:0.8;" x="368.934375" xlink:href="#mbd8925ef7a" y="22.318125"/>
      </g>
     </g>
     <g id="text_3">
      <!-- Product -->
      <g transform="translate(368.934375 476.936562)scale(0.1 -0.1)">
       <defs>
        <path d="M 19.671875 64.796875 
L 19.671875 37.40625 
L 32.078125 37.40625 
Q 38.96875 37.40625 42.71875 40.96875 
Q 46.484375 44.53125 46.484375 51.125 
Q 46.484375 57.671875 42.71875 61.234375 
Q 38.96875 64.796875 32.078125 64.796875 
z
M 9.8125 72.90625 
L 32.078125 72.90625 
Q 44.34375 72.90625 50.609375 67.359375 
Q 56.890625 61.8125 56.890625 51.125 
Q 56.890625 40.328125 50.609375 34.8125 
Q 44.34375 29.296875 32.078125 29.296875 
L 19.671875 29.296875 
L 19.671875 0 
L 9.8125 0 
z
" id="DejaVuSans-80"/>
        <path d="M 41.109375 46.296875 
Q 39.59375 47.171875 37.8125 47.578125 
Q 36.03125 48 33.890625 48 
Q 26.265625 48 22.1875 43.046875 
Q 18.109375 38.09375 18.109375 28.8125 
L 18.109375 0 
L 9.078125 0 
L 9.078125 54.6875 
L 18.109375 54.6875 
L 18.109375 46.1875 
Q 20.953125 51.171875 25.484375 53.578125 
Q 30.03125 56 36.53125 56 
Q 37.453125 56 38.578125 55.875 
Q 39.703125 55.765625 41.0625 55.515625 
z
" id="DejaVuSans-114"/>
        <path d="M 45.40625 46.390625 
L 45.40625 75.984375 
L 54.390625 75.984375 
L 54.390625 0 
L 45.40625 0 
L 45.40625 8.203125 
Q 42.578125 3.328125 38.25 0.953125 
Q 33.9375 -1.421875 27.875 -1.421875 
Q 17.96875 -1.421875 11.734375 6.484375 
Q 5.515625 14.40625 5.515625 27.296875 
Q 5.515625 40.1875 11.734375 48.09375 
Q 17.96875 56 27.875 56 
Q 33.9375 56 38.25 53.625 
Q 42.578125 51.265625 45.40625 46.390625 
z
M 14.796875 27.296875 
Q 14.796875 17.390625 18.875 11.75 
Q 22.953125 6.109375 30.078125 6.109375 
Q 37.203125 6.109375 41.296875 11.75 
Q 45.40625 17.390625 45.40625 27.296875 
Q 45.40625 37.203125 41.296875 42.84375 
Q 37.203125 48.484375 30.078125 48.484375 
Q 22.953125 48.484375 18.875 42.84375 
Q 14.796875 37.203125 14.796875 27.296875 
z
" id="DejaVuSans-100"/>
        <path d="M 48.78125 52.59375 
L 48.78125 44.1875 
Q 44.96875 46.296875 41.140625 47.34375 
Q 37.3125 48.390625 33.40625 48.390625 
Q 24.65625 48.390625 19.8125 42.84375 
Q 14.984375 37.3125 14.984375 27.296875 
Q 14.984375 17.28125 19.8125 11.734375 
Q 24.65625 6.203125 33.40625 6.203125 
Q 37.3125 6.203125 41.140625 7.25 
Q 44.96875 8.296875 48.78125 10.40625 
L 48.78125 2.09375 
Q 45.015625 0.34375 40.984375 -0.53125 
Q 36.96875 -1.421875 32.421875 -1.421875 
Q 20.0625 -1.421875 12.78125 6.34375 
Q 5.515625 14.109375 5.515625 27.296875 
Q 5.515625 40.671875 12.859375 48.328125 
Q 20.21875 56 33.015625 56 
Q 37.15625 56 41.109375 55.140625 
Q 45.0625 54.296875 48.78125 52.59375 
z
" id="DejaVuSans-99"/>
       </defs>
       <use xlink:href="#DejaVuSans-80"/>
       <use x="58.552734" xlink:href="#DejaVuSans-114"/>
       <use x="97.416016" xlink:href="#DejaVuSans-111"/>
       <use x="158.597656" xlink:href="#DejaVuSans-100"/>
       <use x="222.074219" xlink:href="#DejaVuSans-117"/>
       <use x="285.453125" xlink:href="#DejaVuSans-99"/>
       <use x="340.433594" xlink:href="#DejaVuSans-116"/>
      </g>
      <!-- (+rental) -->
      <g transform="translate(368.934375 488.134375)scale(0.1 -0.1)">
       <defs>
        <path d="M 31 75.875 
Q 24.46875 64.65625 21.28125 53.65625 
Q 18.109375 42.671875 18.109375 31.390625 
Q 18.109375 20.125 21.3125 9.0625 
Q 24.515625 -2 31 -13.1875 
L 23.1875 -13.1875 
Q 15.875 -1.703125 12.234375 9.375 
Q 8.59375 20.453125 8.59375 31.390625 
Q 8.59375 42.28125 12.203125 53.3125 
Q 15.828125 64.359375 23.1875 75.875 
z
" id="DejaVuSans-40"/>
        <path d="M 46 62.703125 
L 46 35.5 
L 73.1875 35.5 
L 73.1875 27.203125 
L 46 27.203125 
L 46 0 
L 37.796875 0 
L 37.796875 27.203125 
L 10.59375 27.203125 
L 10.59375 35.5 
L 37.796875 35.5 
L 37.796875 62.703125 
z
" id="DejaVuSans-43"/>
        <path d="M 34.28125 27.484375 
Q 23.390625 27.484375 19.1875 25 
Q 14.984375 22.515625 14.984375 16.5 
Q 14.984375 11.71875 18.140625 8.90625 
Q 21.296875 6.109375 26.703125 6.109375 
Q 34.1875 6.109375 38.703125 11.40625 
Q 43.21875 16.703125 43.21875 25.484375 
L 43.21875 27.484375 
z
M 52.203125 31.203125 
L 52.203125 0 
L 43.21875 0 
L 43.21875 8.296875 
Q 40.140625 3.328125 35.546875 0.953125 
Q 30.953125 -1.421875 24.3125 -1.421875 
Q 15.921875 -1.421875 10.953125 3.296875 
Q 6 8.015625 6 15.921875 
Q 6 25.140625 12.171875 29.828125 
Q 18.359375 34.515625 30.609375 34.515625 
L 43.21875 34.515625 
L 43.21875 35.40625 
Q 43.21875 41.609375 39.140625 45 
Q 35.0625 48.390625 27.6875 48.390625 
Q 23 48.390625 18.546875 47.265625 
Q 14.109375 46.140625 10.015625 43.890625 
L 10.015625 52.203125 
Q 14.9375 54.109375 19.578125 55.046875 
Q 24.21875 56 28.609375 56 
Q 40.484375 56 46.34375 49.84375 
Q 52.203125 43.703125 52.203125 31.203125 
z
" id="DejaVuSans-97"/>
        <path d="M 8.015625 75.875 
L 15.828125 75.875 
Q 23.140625 64.359375 26.78125 53.3125 
Q 30.421875 42.28125 30.421875 31.390625 
Q 30.421875 20.453125 26.78125 9.375 
Q 23.140625 -1.703125 15.828125 -13.1875 
L 8.015625 -13.1875 
Q 14.5 -2 17.703125 9.0625 
Q 20.90625 20.125 20.90625 31.390625 
Q 20.90625 42.671875 17.703125 53.65625 
Q 14.5 64.65625 8.015625 75.875 
z
" id="DejaVuSans-41"/>
       </defs>
       <use xlink:href="#DejaVuSans-40"/>
       <use x="39.013672" xlink:href="#DejaVuSans-43"/>
       <use x="122.802734" xlink:href="#DejaVuSans-114"/>
       <use x="161.666016" xlink:href="#DejaVuSans-101"/>
       <use x="223.189453" xlink:href="#DejaVuSans-110"/>
       <use x="286.568359" xlink:href="#DejaVuSans-116"/>
       <use x="325.777344" xlink:href="#DejaVuSans-97"/>
       <use x="387.056641" xlink:href="#DejaVuSans-108"/>
       <use x="414.839844" xlink:href="#DejaVuSans-41"/>
      </g>
     </g>
    </g>
    <g id="xtick_4">
     <g id="line2d_10">
      <path clip-path="url(#p5516b4e62e)" d="M 536.334375 465.838125 
L 536.334375 22.318125 
" style="fill:none;stroke:#b0b0b0;stroke-dasharray:3.7,1.6;stroke-dashoffset:0;"/>
     </g>
     <g id="line2d_11">
      <g>
       <use style="stroke:#000000;stroke-width:0.8;" x="536.334375" xlink:href="#m725832a863" y="465.838125"/>
      </g>
     </g>
     <g id="line2d_12">
      <g>
       <use style="stroke:#000000;stroke-width:0.8;" x="536.334375" xlink:href="#mbd8925ef7a" y="22.318125"/>
      </g>
     </g>
     <g id="text_4">
      <!-- Commodity -->
      <g transform="translate(536.334375 476.936562)scale(0.1 -0.1)">
       <defs>
        <path d="M 32.171875 -5.078125 
Q 28.375 -14.84375 24.75 -17.8125 
Q 21.140625 -20.796875 15.09375 -20.796875 
L 7.90625 -20.796875 
L 7.90625 -13.28125 
L 13.1875 -13.28125 
Q 16.890625 -13.28125 18.9375 -11.515625 
Q 21 -9.765625 23.484375 -3.21875 
L 25.09375 0.875 
L 2.984375 54.6875 
L 12.5 54.6875 
L 29.59375 11.921875 
L 46.6875 54.6875 
L 56.203125 54.6875 
z
" id="DejaVuSans-121"/>
       </defs>
       <use xlink:href="#DejaVuSans-67"/>
       <use x="69.824219" xlink:href="#DejaVuSans-111"/>
       <use x="131.005859" xlink:href="#DejaVuSans-109"/>
       <use x="228.417969" xlink:href="#DejaVuSans-109"/>
       <use x="325.830078" xlink:href="#DejaVuSans-111"/>
       <use x="387.011719" xlink:href="#DejaVuSans-100"/>
       <use x="450.488281" xlink:href="#DejaVuSans-105"/>
       <use x="478.271484" xlink:href="#DejaVuSans-116"/>
       <use x="517.480469" xlink:href="#DejaVuSans-121"/>
      </g>
      <!-- (+utility) -->
      <g transform="translate(536.334375 488.134375)scale(0.1 -0.1)">
       <use xlink:href="#DejaVuSans-40"/>
       <use x="39.013672" xlink:href="#DejaVuSans-43"/>
       <use x="122.802734" xlink:href="#DejaVuSans-117"/>
       <use x="186.181641" xlink:href="#DejaVuSans-116"/>
       <use x="225.390625" xlink:href="#DejaVuSans-105"/>
       <use x="253.173828" xlink:href="#DejaVuSans-108"/>
       <use x="280.957031" xlink:href="#DejaVuSans-105"/>
       <use x="308.740234" xlink:href="#DejaVuSans-116"/>
       <use x="347.949219" xlink:href="#DejaVuSans-121"/>
       <use x="407.128906" xlink:href="#DejaVuSans-41"/>
      </g>
     </g>
    </g>
    <g id="text_5">
     <!-- Evolution -->
     <g transform="translate(342.452344 501.8125)scale(0.1 -0.1)">
      <defs>
       <path d="M 9.1875 72.90625 
L 59.90625 72.90625 
L 59.90625 58.6875 
L 27.984375 58.6875 
L 27.984375 45.125 
L 58.015625 45.125 
L 58.015625 30.90625 
L 27.984375 30.90625 
L 27.984375 14.203125 
L 60.984375 14.203125 
L 60.984375 0 
L 9.1875 0 
z
" id="DejaVuSans-Bold-69"/>
       <path d="M 1.515625 54.6875 
L 19 54.6875 
L 32.625 16.890625 
L 46.1875 54.6875 
L 63.71875 54.6875 
L 42.1875 0 
L 23 0 
z
" id="DejaVuSans-Bold-118"/>
       <path d="M 34.421875 43.5 
Q 28.609375 43.5 25.5625 39.328125 
Q 22.515625 35.15625 22.515625 27.296875 
Q 22.515625 19.4375 25.5625 15.25 
Q 28.609375 11.078125 34.421875 11.078125 
Q 40.140625 11.078125 43.15625 15.25 
Q 46.1875 19.4375 46.1875 27.296875 
Q 46.1875 35.15625 43.15625 39.328125 
Q 40.140625 43.5 34.421875 43.5 
z
M 34.421875 56 
Q 48.53125 56 56.46875 48.375 
Q 64.40625 40.765625 64.40625 27.296875 
Q 64.40625 13.8125 56.46875 6.1875 
Q 48.53125 -1.421875 34.421875 -1.421875 
Q 20.265625 -1.421875 12.28125 6.1875 
Q 4.296875 13.8125 4.296875 27.296875 
Q 4.296875 40.765625 12.28125 48.375 
Q 20.265625 56 34.421875 56 
z
" id="DejaVuSans-Bold-111"/>
       <path d="M 8.40625 75.984375 
L 25.875 75.984375 
L 25.875 0 
L 8.40625 0 
z
" id="DejaVuSans-Bold-108"/>
       <path d="M 7.8125 21.296875 
L 7.8125 54.6875 
L 25.390625 54.6875 
L 25.390625 49.21875 
Q 25.390625 44.78125 25.34375 38.0625 
Q 25.296875 31.34375 25.296875 29.109375 
Q 25.296875 22.515625 25.640625 19.609375 
Q 25.984375 16.703125 26.8125 15.375 
Q 27.875 13.671875 29.609375 12.734375 
Q 31.34375 11.8125 33.59375 11.8125 
Q 39.0625 11.8125 42.1875 16.015625 
Q 45.3125 20.21875 45.3125 27.6875 
L 45.3125 54.6875 
L 62.796875 54.6875 
L 62.796875 0 
L 45.3125 0 
L 45.3125 7.90625 
Q 41.359375 3.125 36.9375 0.84375 
Q 32.515625 -1.421875 27.203125 -1.421875 
Q 17.71875 -1.421875 12.765625 4.390625 
Q 7.8125 10.203125 7.8125 21.296875 
z
" id="DejaVuSans-Bold-117"/>
       <path d="M 27.484375 70.21875 
L 27.484375 54.6875 
L 45.515625 54.6875 
L 45.515625 42.1875 
L 27.484375 42.1875 
L 27.484375 19 
Q 27.484375 15.1875 29 13.84375 
Q 30.515625 12.5 35.015625 12.5 
L 44 12.5 
L 44 0 
L 29 0 
Q 18.65625 0 14.328125 4.3125 
Q 10.015625 8.640625 10.015625 19 
L 10.015625 42.1875 
L 1.3125 42.1875 
L 1.3125 54.6875 
L 10.015625 54.6875 
L 10.015625 70.21875 
z
" id="DejaVuSans-Bold-116"/>
       <path d="M 8.40625 54.6875 
L 25.875 54.6875 
L 25.875 0 
L 8.40625 0 
z
M 8.40625 75.984375 
L 25.875 75.984375 
L 25.875 61.71875 
L 8.40625 61.71875 
z
" id="DejaVuSans-Bold-105"/>
       <path d="M 63.375 33.296875 
L 63.375 0 
L 45.796875 0 
L 45.796875 5.421875 
L 45.796875 25.484375 
Q 45.796875 32.5625 45.484375 35.25 
Q 45.171875 37.9375 44.390625 39.203125 
Q 43.359375 40.921875 41.59375 41.875 
Q 39.84375 42.828125 37.59375 42.828125 
Q 32.125 42.828125 29 38.59375 
Q 25.875 34.375 25.875 26.90625 
L 25.875 0 
L 8.40625 0 
L 8.40625 54.6875 
L 25.875 54.6875 
L 25.875 46.6875 
Q 29.828125 51.46875 34.265625 53.734375 
Q 38.71875 56 44.09375 56 
Q 53.5625 56 58.46875 50.1875 
Q 63.375 44.390625 63.375 33.296875 
z
" id="DejaVuSans-Bold-110"/>
      </defs>
      <use xlink:href="#DejaVuSans-Bold-69"/>
      <use x="68.310547" xlink:href="#DejaVuSans-Bold-118"/>
      <use x="133.496094" xlink:href="#DejaVuSans-Bold-111"/>
      <use x="202.197266" xlink:href="#DejaVuSans-Bold-108"/>
      <use x="236.474609" xlink:href="#DejaVuSans-Bold-117"/>
      <use x="307.666016" xlink:href="#DejaVuSans-Bold-116"/>
      <use x="355.46875" xlink:href="#DejaVuSans-Bold-105"/>
      <use x="389.746094" xlink:href="#DejaVuSans-Bold-111"/>
      <use x="458.447266" xlink:href="#DejaVuSans-Bold-110"/>
     </g>
    </g>
   </g>
   <g id="matplotlib.axis_2">
    <g id="ytick_1">
     <g id="line2d_13"/>
     <g id="text_6">
      <!-- Invisible -->
      <g transform="translate(28.554688 465.838125)rotate(-90)scale(0.1 -0.1)">
       <defs>
        <path d="M 9.8125 72.90625 
L 19.671875 72.90625 
L 19.671875 0 
L 9.8125 0 
z
" id="DejaVuSans-73"/>
        <path d="M 2.984375 54.6875 
L 12.5 54.6875 
L 29.59375 8.796875 
L 46.6875 54.6875 
L 56.203125 54.6875 
L 35.6875 0 
L 23.484375 0 
z
" id="DejaVuSans-118"/>
        <path d="M 48.6875 27.296875 
Q 48.6875 37.203125 44.609375 42.84375 
Q 40.53125 48.484375 33.40625 48.484375 
Q 26.265625 48.484375 22.1875 42.84375 
Q 18.109375 37.203125 18.109375 27.296875 
Q 18.109375 17.390625 22.1875 11.75 
Q 26.265625 6.109375 33.40625 6.109375 
Q 40.53125 6.109375 44.609375 11.75 
Q 48.6875 17.390625 48.6875 27.296875 
z
M 18.109375 46.390625 
Q 20.953125 51.265625 25.265625 53.625 
Q 29.59375 56 35.59375 56 
Q 45.5625 56 51.78125 48.09375 
Q 58.015625 40.1875 58.015625 27.296875 
Q 58.015625 14.40625 51.78125 6.484375 
Q 45.5625 -1.421875 35.59375 -1.421875 
Q 29.59375 -1.421875 25.265625 0.953125 
Q 20.953125 3.328125 18.109375 8.203125 
L 18.109375 0 
L 9.078125 0 
L 9.078125 75.984375 
L 18.109375 75.984375 
z
" id="DejaVuSans-98"/>
       </defs>
       <use xlink:href="#DejaVuSans-73"/>
       <use x="29.492188" xlink:href="#DejaVuSans-110"/>
       <use x="92.871094" xlink:href="#DejaVuSans-118"/>
       <use x="152.050781" xlink:href="#DejaVuSans-105"/>
       <use x="179.833984" xlink:href="#DejaVuSans-115"/>
       <use x="231.933594" xlink:href="#DejaVuSans-105"/>
       <use x="259.716797" xlink:href="#DejaVuSans-98"/>
       <use x="323.193359" xlink:href="#DejaVuSans-108"/>
       <use x="350.976562" xlink:href="#DejaVuSans-101"/>
      </g>
     </g>
    </g>
    <g id="ytick_2">
     <g id="line2d_14"/>
     <g id="text_7">
      <!-- Visible -->
      <g transform="translate(28.554688 55.582125)rotate(-90)scale(0.1 -0.1)">
       <defs>
        <path d="M 28.609375 0 
L 0.78125 72.90625 
L 11.078125 72.90625 
L 34.1875 11.53125 
L 57.328125 72.90625 
L 67.578125 72.90625 
L 39.796875 0 
z
" id="DejaVuSans-86"/>
       </defs>
       <use xlink:href="#DejaVuSans-86"/>
       <use x="66.158203" xlink:href="#DejaVuSans-105"/>
       <use x="93.941406" xlink:href="#DejaVuSans-115"/>
       <use x="146.041016" xlink:href="#DejaVuSans-105"/>
       <use x="173.824219" xlink:href="#DejaVuSans-98"/>
       <use x="237.300781" xlink:href="#DejaVuSans-108"/>
       <use x="265.083984" xlink:href="#DejaVuSans-101"/>
      </g>
     </g>
    </g>
    <g id="text_8">
     <!-- Visibility -->
     <g transform="translate(14.798438 268.634375)rotate(-90)scale(0.1 -0.1)">
      <defs>
       <path d="M 0.484375 72.90625 
L 19.390625 72.90625 
L 38.71875 19.09375 
L 58.015625 72.90625 
L 76.90625 72.90625 
L 49.90625 0 
L 27.484375 0 
z
" id="DejaVuSans-Bold-86"/>
       <path d="M 51.125 52.984375 
L 51.125 39.703125 
Q 45.515625 42.046875 40.28125 43.21875 
Q 35.0625 44.390625 30.421875 44.390625 
Q 25.4375 44.390625 23.015625 43.140625 
Q 20.609375 41.890625 20.609375 39.3125 
Q 20.609375 37.203125 22.4375 36.078125 
Q 24.265625 34.96875 29 34.421875 
L 32.078125 33.984375 
Q 45.515625 32.28125 50.140625 28.375 
Q 54.78125 24.46875 54.78125 16.109375 
Q 54.78125 7.375 48.328125 2.96875 
Q 41.890625 -1.421875 29.109375 -1.421875 
Q 23.6875 -1.421875 17.890625 -0.5625 
Q 12.109375 0.296875 6 2 
L 6 15.28125 
Q 11.234375 12.75 16.71875 11.46875 
Q 22.21875 10.203125 27.875 10.203125 
Q 33.015625 10.203125 35.59375 11.609375 
Q 38.1875 13.03125 38.1875 15.828125 
Q 38.1875 18.171875 36.40625 19.3125 
Q 34.625 20.453125 29.296875 21.09375 
L 26.21875 21.484375 
Q 14.546875 22.953125 9.859375 26.90625 
Q 5.171875 30.859375 5.171875 38.921875 
Q 5.171875 47.609375 11.125 51.796875 
Q 17.09375 56 29.390625 56 
Q 34.234375 56 39.546875 55.265625 
Q 44.875 54.546875 51.125 52.984375 
z
" id="DejaVuSans-Bold-115"/>
       <path d="M 37.5 11.28125 
Q 43.109375 11.28125 46.0625 15.375 
Q 49.03125 19.484375 49.03125 27.296875 
Q 49.03125 35.109375 46.0625 39.203125 
Q 43.109375 43.3125 37.5 43.3125 
Q 31.890625 43.3125 28.875 39.1875 
Q 25.875 35.0625 25.875 27.296875 
Q 25.875 19.53125 28.875 15.40625 
Q 31.890625 11.28125 37.5 11.28125 
z
M 25.875 46.6875 
Q 29.5 51.46875 33.890625 53.734375 
Q 38.28125 56 44 56 
Q 54.109375 56 60.59375 47.96875 
Q 67.09375 39.9375 67.09375 27.296875 
Q 67.09375 14.65625 60.59375 6.609375 
Q 54.109375 -1.421875 44 -1.421875 
Q 38.28125 -1.421875 33.890625 0.84375 
Q 29.5 3.125 25.875 7.90625 
L 25.875 0 
L 8.40625 0 
L 8.40625 75.984375 
L 25.875 75.984375 
z
" id="DejaVuSans-Bold-98"/>
       <path d="M 1.21875 54.6875 
L 18.703125 54.6875 
L 33.40625 17.578125 
L 45.90625 54.6875 
L 63.375 54.6875 
L 40.375 -5.171875 
Q 36.921875 -14.3125 32.296875 -17.9375 
Q 27.6875 -21.578125 20.125 -21.578125 
L 10.015625 -21.578125 
L 10.015625 -10.109375 
L 15.484375 -10.109375 
Q 19.921875 -10.109375 21.9375 -8.6875 
Q 23.96875 -7.28125 25.09375 -3.609375 
L 25.59375 -2.09375 
z
" id="DejaVuSans-Bold-121"/>
      </defs>
      <use xlink:href="#DejaVuSans-Bold-86"/>
      <use x="75.642578" xlink:href="#DejaVuSans-Bold-105"/>
      <use x="109.919922" xlink:href="#DejaVuSans-Bold-115"/>
      <use x="169.441406" xlink:href="#DejaVuSans-Bold-105"/>
      <use x="203.71875" xlink:href="#DejaVuSans-Bold-98"/>
      <use x="275.300781" xlink:href="#DejaVuSans-Bold-105"/>
      <use x="309.578125" xlink:href="#DejaVuSans-Bold-108"/>
      <use x="343.855469" xlink:href="#DejaVuSans-Bold-105"/>
      <use x="378.132812" xlink:href="#DejaVuSans-Bold-116"/>
      <use x="425.935547" xlink:href="#DejaVuSans-Bold-121"/>
     </g>
    </g>
   </g>
   <g id="LineCollection_1">
    <path clip-path="url(#p5516b4e62e)" d="M 502.854375 66.670125 
L 536.334375 111.022125 
" style="fill:none;stroke:#000000;"/>
    <path clip-path="url(#p5516b4e62e)" d="M 502.854375 66.670125 
L 368.934375 111.022125 
" style="fill:none;stroke:#000000;"/>
    <path clip-path="url(#p5516b4e62e)" d="M 402.414375 66.670125 
L 435.894375 111.022125 
" style="fill:none;stroke:#000000;"/>
    <path clip-path="url(#p5516b4e62e)" d="M 402.414375 66.670125 
L 368.934375 111.022125 
" style="fill:none;stroke:#000000;"/>
    <path clip-path="url(#p5516b4e62e)" d="M 208.230375 66.670125 
L 368.934375 111.022125 
" style="fill:none;stroke:#000000;"/>
    <path clip-path="url(#p5516b4e62e)" d="M 208.230375 66.670125 
L 301.974375 111.022125 
" style="fill:none;stroke:#000000;"/>
    <path clip-path="url(#p5516b4e62e)" d="M 208.230375 66.670125 
L 201.534375 111.022125 
" style="fill:none;stroke:#000000;"/>
    <path clip-path="url(#p5516b4e62e)" d="M 208.230375 66.670125 
L 107.790375 111.022125 
" style="fill:none;stroke:#000000;"/>
    <path clip-path="url(#p5516b4e62e)" d="M 536.334375 111.022125 
L 235.014375 177.550125 
" style="fill:none;stroke:#000000;"/>
    <path clip-path="url(#p5516b4e62e)" d="M 435.894375 111.022125 
L 235.014375 177.550125 
" style="fill:none;stroke:#000000;"/>
    <path clip-path="url(#p5516b4e62e)" d="M 368.934375 111.022125 
L 168.054375 177.550125 
" style="fill:none;stroke:#000000;"/>
    <path clip-path="url(#p5516b4e62e)" d="M 368.934375 111.022125 
L 235.014375 177.550125 
" style="fill:none;stroke:#000000;"/>
    <path clip-path="url(#p5516b4e62e)" d="M 301.974375 111.022125 
L 168.054375 177.550125 
" style="fill:none;stroke:#000000;"/>
    <path clip-path="url(#p5516b4e62e)" d="M 201.534375 111.022125 
L 168.054375 177.550125 
" style="fill:none;stroke:#000000;"/>
    <path clip-path="url(#p5516b4e62e)" d="M 107.790375 111.022125 
L 168.054375 177.550125 
" style="fill:none;stroke:#000000;"/>
    <path clip-path="url(#p5516b4e62e)" d="M 168.054375 177.550125 
L 325.410375 266.254125 
" style="fill:none;stroke:#000000;"/>
    <path clip-path="url(#p5516b4e62e)" d="M 168.054375 177.550125 
L 335.454375 221.902125 
" style="fill:none;stroke:#000000;"/>
    <path clip-path="url(#p5516b4e62e)" d="M 335.454375 221.902125 
L 325.410375 266.254125 
" style="fill:none;stroke:#000000;"/>
    <path clip-path="url(#p5516b4e62e)" d="M 335.454375 221.902125 
L 502.854375 377.134125 
" style="fill:none;stroke:#000000;"/>
    <path clip-path="url(#p5516b4e62e)" d="M 235.014375 177.550125 
L 335.454375 221.902125 
" style="fill:none;stroke:#000000;"/>
    <path clip-path="url(#p5516b4e62e)" d="M 235.014375 177.550125 
L 268.494375 295.082925 
" style="fill:none;stroke:#000000;"/>
    <path clip-path="url(#p5516b4e62e)" d="M 235.014375 177.550125 
L 268.494375 332.782125 
" style="fill:none;stroke:#000000;"/>
    <path clip-path="url(#p5516b4e62e)" d="M 268.494375 295.082925 
L 502.854375 377.134125 
" style="fill:none;stroke:#000000;"/>
    <path clip-path="url(#p5516b4e62e)" d="M 268.494375 332.782125 
L 502.854375 377.134125 
" style="fill:none;stroke:#000000;"/>
    <path clip-path="url(#p5516b4e62e)" d="M 502.854375 377.134125 
L 325.410375 266.254125 
" style="fill:none;stroke:#000000;"/>
    <path clip-path="url(#p5516b4e62e)" d="M 502.854375 377.134125 
L 636.774375 421.486125 
" style="fill:none;stroke:#000000;"/>
   </g>
   <g id="line2d_15">
    <path clip-path="url(#p5516b4e62e)" d="M 536.334375 111.022125 
" style="fill:none;stroke:#ffffff;stroke-linecap:square;stroke-width:1.5;"/>
    <defs>
     <path d="M 0 3 
C 0.795609 3 1.55874 2.683901 2.12132 2.12132 
C 2.683901 1.55874 3 0.795609 3 0 
C 3 -0.795609 2.683901 -1.55874 2.12132 -2.12132 
C 1.55874 -2.683901 0.795609 -3 0 -3 
C -0.795609 -3 -1.55874 -2.683901 -2.12132 -2.12132 
C -2.683901 -1.55874 -3 -0.795609 -3 0 
C -3 0.795609 -2.683901 1.55874 -2.12132 2.12132 
C -1.55874 2.683901 -0.795609 3 0 3 
z
" id="m2cefcafc4d" style="stroke:#000000;"/>
    </defs>
    <g clip-path="url(#p5516b4e62e)">
     <use style="fill:#ffffff;stroke:#000000;" x="536.334375" xlink:href="#m2cefcafc4d" y="111.022125"/>
    </g>
   </g>
   <g id="line2d_16">
    <path clip-path="url(#p5516b4e62e)" d="M 435.894375 111.022125 
" style="fill:none;stroke:#ffffff;stroke-linecap:square;stroke-width:1.5;"/>
    <g clip-path="url(#p5516b4e62e)">
     <use style="fill:#ffffff;stroke:#000000;" x="435.894375" xlink:href="#m2cefcafc4d" y="111.022125"/>
    </g>
   </g>
   <g id="line2d_17">
    <path clip-path="url(#p5516b4e62e)" d="M 368.934375 111.022125 
" style="fill:none;stroke:#ffffff;stroke-linecap:square;stroke-width:1.5;"/>
    <g clip-path="url(#p5516b4e62e)">
     <use style="fill:#ffffff;stroke:#000000;" x="368.934375" xlink:href="#m2cefcafc4d" y="111.022125"/>
    </g>
   </g>
   <g id="line2d_18">
    <path clip-path="url(#p5516b4e62e)" d="M 301.974375 111.022125 
" style="fill:none;stroke:#ffffff;stroke-linecap:square;stroke-width:1.5;"/>
    <g clip-path="url(#p5516b4e62e)">
     <use style="fill:#ffffff;stroke:#000000;" x="301.974375" xlink:href="#m2cefcafc4d" y="111.022125"/>
    </g>
   </g>
   <g id="line2d_19">
    <path clip-path="url(#p5516b4e62e)" d="M 201.534375 111.022125 
" style="fill:none;stroke:#ffffff;stroke-linecap:square;stroke-width:1.5;"/>
    <g clip-path="url(#p5516b4e62e)">
     <use style="fill:#ffffff;stroke:#000000;" x="201.534375" xlink:href="#m2cefcafc4d" y="111.022125"/>
    </g>
   </g>
   <g id="line2d_20">
    <path clip-path="url(#p5516b4e62e)" d="M 107.790375 111.022125 
" style="fill:none;stroke:#ffffff;stroke-linecap:square;stroke-width:1.5;"/>
    <g clip-path="url(#p5516b4e62e)">
     <use style="fill:#ffffff;stroke:#000000;" x="107.790375" xlink:href="#m2cefcafc4d" y="111.022125"/>
    </g>
   </g>
   <g id="line2d_21">
    <path clip-path="url(#p5516b4e62e)" d="M 168.054375 177.550125 
" style="fill:none;stroke:#ffffff;stroke-linecap:square;stroke-width:1.5;"/>
    <g clip-path="url(#p5516b4e62e)">
     <use style="fill:#ffffff;stroke:#000000;" x="168.054375" xlink:href="#m2cefcafc4d" y="177.550125"/>
    </g>
   </g>
   <g id="line2d_22">
    <path clip-path="url(#p5516b4e62e)" d="M 235.014375 177.550125 
" style="fill:none;stroke:#ffffff;stroke-linecap:square;stroke-width:1.5;"/>
    <g clip-path="url(#p5516b4e62e)">
     <use style="fill:#ffffff;stroke:#000000;" x="235.014375" xlink:href="#m2cefcafc4d" y="177.550125"/>
    </g>
   </g>
   <g id="line2d_23">
    <path clip-path="url(#p5516b4e62e)" d="M 335.454375 221.902125 
" style="fill:none;stroke:#ffffff;stroke-linecap:square;stroke-width:1.5;"/>
    <g clip-path="url(#p5516b4e62e)">
     <use style="fill:#ffffff;stroke:#000000;" x="335.454375" xlink:href="#m2cefcafc4d" y="221.902125"/>
    </g>
   </g>
   <g id="line2d_24">
    <path clip-path="url(#p5516b4e62e)" d="M 325.410375 266.254125 
" style="fill:none;stroke:#ffffff;stroke-linecap:square;stroke-width:1.5;"/>
    <g clip-path="url(#p5516b4e62e)">
     <use style="fill:#ffffff;stroke:#000000;" x="325.410375" xlink:href="#m2cefcafc4d" y="266.254125"/>
    </g>
   </g>
   <g id="line2d_25">
    <path clip-path="url(#p5516b4e62e)" d="M 268.494375 295.082925 
" style="fill:none;stroke:#ffffff;stroke-linecap:square;stroke-width:1.5;"/>
    <g clip-path="url(#p5516b4e62e)">
     <use style="fill:#ffffff;stroke:#000000;" x="268.494375" xlink:href="#m2cefcafc4d" y="295.082925"/>
    </g>
   </g>
   <g id="line2d_26">
    <path clip-path="url(#p5516b4e62e)" d="M 268.494375 332.782125 
" style="fill:none;stroke:#ffffff;stroke-linecap:square;stroke-width:1.5;"/>
    <g clip-path="url(#p5516b4e62e)">
     <use style="fill:#ffffff;stroke:#000000;" x="268.494375" xlink:href="#m2cefcafc4d" y="332.782125"/>
    </g>
   </g>
   <g id="line2d_27">
    <path clip-path="url(#p5516b4e62e)" d="M 502.854375 377.134125 
" style="fill:none;stroke:#ffffff;stroke-linecap:square;stroke-width:1.5;"/>
    <g clip-path="url(#p5516b4e62e)">
     <use style="fill:#ffffff;stroke:#000000;" x="502.854375" xlink:href="#m2cefcafc4d" y="377.134125"/>
    </g>
   </g>
   <g id="line2d_28">
    <path clip-path="url(#p5516b4e62e)" d="M 636.774375 421.486125 
" style="fill:none;stroke:#ffffff;stroke-linecap:square;stroke-width:1.5;"/>
    <g clip-path="url(#p5516b4e62e)">
     <use style="fill:#ffffff;stroke:#000000;" x="636.774375" xlink:href="#m2cefcafc4d" y="421.486125"/>
    </g>
   </g>
   <g id="patch_3">
    <path d="M 34.134375 465.838125 
L 34.134375 22.318125 
" style="fill:none;stroke:#000000;stroke-linecap:square;stroke-linejoin:miter;stroke-width:0.8;"/>
   </g>
   <g id="patch_4">
    <path d="M 703.734375 465.838125 
L 703.734375 22.318125 
" style="fill:none;stroke:#000000;stroke-linecap:square;stroke-linejoin:miter;stroke-width:0.8;"/>
   </g>
   <g id="patch_5">
    <path d="M 34.134375 465.838125 
L 703.734375 465.838125 
" style="fill:none;stroke:#000000;stroke-linecap:square;stroke-linejoin:miter;stroke-width:0.8;"/>
   </g>
   <g id="patch_6">
    <path d="M 34.134375 22.318125 
L 703.734375 22.318125 
" style="fill:none;stroke:#000000;stroke-linecap:square;stroke-linejoin:miter;stroke-width:0.8;"/>
   </g>
   <g id="text_9">
    <!-- Archivist -->
    <g transform="translate(504.854375 62.590437)scale(0.1 -0.1)">
     <defs>
      <path d="M 34.1875 63.1875 
L 20.796875 26.90625 
L 47.609375 26.90625 
z
M 28.609375 72.90625 
L 39.796875 72.90625 
L 67.578125 0 
L 57.328125 0 
L 50.6875 18.703125 
L 17.828125 18.703125 
L 11.1875 0 
L 0.78125 0 
z
" id="DejaVuSans-65"/>
      <path d="M 54.890625 33.015625 
L 54.890625 0 
L 45.90625 0 
L 45.90625 32.71875 
Q 45.90625 40.484375 42.875 44.328125 
Q 39.84375 48.1875 33.796875 48.1875 
Q 26.515625 48.1875 22.3125 43.546875 
Q 18.109375 38.921875 18.109375 30.90625 
L 18.109375 0 
L 9.078125 0 
L 9.078125 75.984375 
L 18.109375 75.984375 
L 18.109375 46.1875 
Q 21.34375 51.125 25.703125 53.5625 
Q 30.078125 56 35.796875 56 
Q 45.21875 56 50.046875 50.171875 
Q 54.890625 44.34375 54.890625 33.015625 
z
" id="DejaVuSans-104"/>
     </defs>
     <use xlink:href="#DejaVuSans-65"/>
     <use x="68.408203" xlink:href="#DejaVuSans-114"/>
     <use x="107.271484" xlink:href="#DejaVuSans-99"/>
     <use x="162.251953" xlink:href="#DejaVuSans-104"/>
     <use x="225.630859" xlink:href="#DejaVuSans-105"/>
     <use x="253.414062" xlink:href="#DejaVuSans-118"/>
     <use x="312.59375" xlink:href="#DejaVuSans-105"/>
     <use x="340.376953" xlink:href="#DejaVuSans-115"/>
     <use x="392.476562" xlink:href="#DejaVuSans-116"/>
    </g>
   </g>
   <g id="text_10">
    <!-- Curator -->
    <g transform="translate(404.414375 62.590437)scale(0.1 -0.1)">
     <use xlink:href="#DejaVuSans-67"/>
     <use x="69.824219" xlink:href="#DejaVuSans-117"/>
     <use x="133.203125" xlink:href="#DejaVuSans-114"/>
     <use x="174.316406" xlink:href="#DejaVuSans-97"/>
     <use x="235.595703" xlink:href="#DejaVuSans-116"/>
     <use x="274.804688" xlink:href="#DejaVuSans-111"/>
     <use x="335.986328" xlink:href="#DejaVuSans-114"/>
    </g>
   </g>
   <g id="text_11">
    <!-- Reader -->
    <g transform="translate(210.230375 62.590437)scale(0.1 -0.1)">
     <defs>
      <path d="M 44.390625 34.1875 
Q 47.5625 33.109375 50.5625 29.59375 
Q 53.5625 26.078125 56.59375 19.921875 
L 66.609375 0 
L 56 0 
L 46.6875 18.703125 
Q 43.0625 26.03125 39.671875 28.421875 
Q 36.28125 30.8125 30.421875 30.8125 
L 19.671875 30.8125 
L 19.671875 0 
L 9.8125 0 
L 9.8125 72.90625 
L 32.078125 72.90625 
Q 44.578125 72.90625 50.734375 67.671875 
Q 56.890625 62.453125 56.890625 51.90625 
Q 56.890625 45.015625 53.6875 40.46875 
Q 50.484375 35.9375 44.390625 34.1875 
z
M 19.671875 64.796875 
L 19.671875 38.921875 
L 32.078125 38.921875 
Q 39.203125 38.921875 42.84375 42.21875 
Q 46.484375 45.515625 46.484375 51.90625 
Q 46.484375 58.296875 42.84375 61.546875 
Q 39.203125 64.796875 32.078125 64.796875 
z
" id="DejaVuSans-82"/>
     </defs>
     <use xlink:href="#DejaVuSans-82"/>
     <use x="64.982422" xlink:href="#DejaVuSans-101"/>
     <use x="126.505859" xlink:href="#DejaVuSans-97"/>
     <use x="187.785156" xlink:href="#DejaVuSans-100"/>
     <use x="251.261719" xlink:href="#DejaVuSans-101"/>
     <use x="312.785156" xlink:href="#DejaVuSans-114"/>
    </g>
   </g>
   <g id="text_12">
    <!-- Collect -->
    <g transform="translate(541.334375 121.942437)scale(0.1 -0.1)">
     <use xlink:href="#DejaVuSans-67"/>
     <use x="69.824219" xlink:href="#DejaVuSans-111"/>
     <use x="131.005859" xlink:href="#DejaVuSans-108"/>
     <use x="158.789062" xlink:href="#DejaVuSans-108"/>
     <use x="186.572266" xlink:href="#DejaVuSans-101"/>
     <use x="248.095703" xlink:href="#DejaVuSans-99"/>
     <use x="303.076172" xlink:href="#DejaVuSans-116"/>
    </g>
   </g>
   <g id="text_13">
    <!-- Describe -->
    <g transform="translate(440.894375 121.942437)scale(0.1 -0.1)">
     <defs>
      <path d="M 19.671875 64.796875 
L 19.671875 8.109375 
L 31.59375 8.109375 
Q 46.6875 8.109375 53.6875 14.9375 
Q 60.6875 21.78125 60.6875 36.53125 
Q 60.6875 51.171875 53.6875 57.984375 
Q 46.6875 64.796875 31.59375 64.796875 
z
M 9.8125 72.90625 
L 30.078125 72.90625 
Q 51.265625 72.90625 61.171875 64.09375 
Q 71.09375 55.28125 71.09375 36.53125 
Q 71.09375 17.671875 61.125 8.828125 
Q 51.171875 0 30.078125 0 
L 9.8125 0 
z
" id="DejaVuSans-68"/>
     </defs>
     <use xlink:href="#DejaVuSans-68"/>
     <use x="77.001953" xlink:href="#DejaVuSans-101"/>
     <use x="138.525391" xlink:href="#DejaVuSans-115"/>
     <use x="190.625" xlink:href="#DejaVuSans-99"/>
     <use x="245.605469" xlink:href="#DejaVuSans-114"/>
     <use x="286.71875" xlink:href="#DejaVuSans-105"/>
     <use x="314.501953" xlink:href="#DejaVuSans-98"/>
     <use x="377.978516" xlink:href="#DejaVuSans-101"/>
    </g>
   </g>
   <g id="text_14">
    <!-- View -->
    <g transform="translate(373.934375 121.942437)scale(0.1 -0.1)">
     <defs>
      <path d="M 4.203125 54.6875 
L 13.1875 54.6875 
L 24.421875 12.015625 
L 35.59375 54.6875 
L 46.1875 54.6875 
L 57.421875 12.015625 
L 68.609375 54.6875 
L 77.59375 54.6875 
L 63.28125 0 
L 52.6875 0 
L 40.921875 44.828125 
L 29.109375 0 
L 18.5 0 
z
" id="DejaVuSans-119"/>
     </defs>
     <use xlink:href="#DejaVuSans-86"/>
     <use x="66.158203" xlink:href="#DejaVuSans-105"/>
     <use x="93.941406" xlink:href="#DejaVuSans-101"/>
     <use x="155.464844" xlink:href="#DejaVuSans-119"/>
    </g>
   </g>
   <g id="text_15">
    <!-- Browse -->
    <g transform="translate(251.974375 114.942437)scale(0.1 -0.1)">
     <use xlink:href="#DejaVuSans-66"/>
     <use x="68.603516" xlink:href="#DejaVuSans-114"/>
     <use x="107.466797" xlink:href="#DejaVuSans-111"/>
     <use x="168.648438" xlink:href="#DejaVuSans-119"/>
     <use x="250.435547" xlink:href="#DejaVuSans-115"/>
     <use x="302.535156" xlink:href="#DejaVuSans-101"/>
    </g>
   </g>
   <g id="text_16">
    <!-- Search -->
    <g transform="translate(156.534375 114.942437)scale(0.1 -0.1)">
     <defs>
      <path d="M 53.515625 70.515625 
L 53.515625 60.890625 
Q 47.90625 63.578125 42.921875 64.890625 
Q 37.9375 66.21875 33.296875 66.21875 
Q 25.25 66.21875 20.875 63.09375 
Q 16.5 59.96875 16.5 54.203125 
Q 16.5 49.359375 19.40625 46.890625 
Q 22.3125 44.4375 30.421875 42.921875 
L 36.375 41.703125 
Q 47.40625 39.59375 52.65625 34.296875 
Q 57.90625 29 57.90625 20.125 
Q 57.90625 9.515625 50.796875 4.046875 
Q 43.703125 -1.421875 29.984375 -1.421875 
Q 24.8125 -1.421875 18.96875 -0.25 
Q 13.140625 0.921875 6.890625 3.21875 
L 6.890625 13.375 
Q 12.890625 10.015625 18.65625 8.296875 
Q 24.421875 6.59375 29.984375 6.59375 
Q 38.421875 6.59375 43.015625 9.90625 
Q 47.609375 13.234375 47.609375 19.390625 
Q 47.609375 24.75 44.3125 27.78125 
Q 41.015625 30.8125 33.5 32.328125 
L 27.484375 33.5 
Q 16.453125 35.6875 11.515625 40.375 
Q 6.59375 45.0625 6.59375 53.421875 
Q 6.59375 63.09375 13.40625 68.65625 
Q 20.21875 74.21875 32.171875 74.21875 
Q 37.3125 74.21875 42.625 73.28125 
Q 47.953125 72.359375 53.515625 70.515625 
z
" id="DejaVuSans-83"/>
     </defs>
     <use xlink:href="#DejaVuSans-83"/>
     <use x="63.476562" xlink:href="#DejaVuSans-101"/>
     <use x="125" xlink:href="#DejaVuSans-97"/>
     <use x="186.279297" xlink:href="#DejaVuSans-114"/>
     <use x="225.142578" xlink:href="#DejaVuSans-99"/>
     <use x="280.123047" xlink:href="#DejaVuSans-104"/>
    </g>
   </g>
   <g id="text_17">
    <!-- Analyse -->
    <g transform="translate(57.790375 114.942437)scale(0.1 -0.1)">
     <use xlink:href="#DejaVuSans-65"/>
     <use x="68.408203" xlink:href="#DejaVuSans-110"/>
     <use x="131.787109" xlink:href="#DejaVuSans-97"/>
     <use x="193.066406" xlink:href="#DejaVuSans-108"/>
     <use x="220.849609" xlink:href="#DejaVuSans-121"/>
     <use x="280.029297" xlink:href="#DejaVuSans-115"/>
     <use x="332.128906" xlink:href="#DejaVuSans-101"/>
    </g>
   </g>
   <g id="text_18">
    <!-- Website -->
    <g transform="translate(114.054375 181.470437)scale(0.1 -0.1)">
     <defs>
      <path d="M 3.328125 72.90625 
L 13.28125 72.90625 
L 28.609375 11.28125 
L 43.890625 72.90625 
L 54.984375 72.90625 
L 70.3125 11.28125 
L 85.59375 72.90625 
L 95.609375 72.90625 
L 77.296875 0 
L 64.890625 0 
L 49.515625 63.28125 
L 33.984375 0 
L 21.578125 0 
z
" id="DejaVuSans-87"/>
     </defs>
     <use xlink:href="#DejaVuSans-87"/>
     <use x="93.001953" xlink:href="#DejaVuSans-101"/>
     <use x="154.525391" xlink:href="#DejaVuSans-98"/>
     <use x="218.001953" xlink:href="#DejaVuSans-115"/>
     <use x="270.101562" xlink:href="#DejaVuSans-105"/>
     <use x="297.884766" xlink:href="#DejaVuSans-116"/>
     <use x="337.09375" xlink:href="#DejaVuSans-101"/>
    </g>
   </g>
   <g id="text_19">
    <!-- W3ACT -->
    <g transform="translate(190.014375 181.470437)scale(0.1 -0.1)">
     <defs>
      <path d="M 40.578125 39.3125 
Q 47.65625 37.796875 51.625 33 
Q 55.609375 28.21875 55.609375 21.1875 
Q 55.609375 10.40625 48.1875 4.484375 
Q 40.765625 -1.421875 27.09375 -1.421875 
Q 22.515625 -1.421875 17.65625 -0.515625 
Q 12.796875 0.390625 7.625 2.203125 
L 7.625 11.71875 
Q 11.71875 9.328125 16.59375 8.109375 
Q 21.484375 6.890625 26.8125 6.890625 
Q 36.078125 6.890625 40.9375 10.546875 
Q 45.796875 14.203125 45.796875 21.1875 
Q 45.796875 27.640625 41.28125 31.265625 
Q 36.765625 34.90625 28.71875 34.90625 
L 20.21875 34.90625 
L 20.21875 43.015625 
L 29.109375 43.015625 
Q 36.375 43.015625 40.234375 45.921875 
Q 44.09375 48.828125 44.09375 54.296875 
Q 44.09375 59.90625 40.109375 62.90625 
Q 36.140625 65.921875 28.71875 65.921875 
Q 24.65625 65.921875 20.015625 65.03125 
Q 15.375 64.15625 9.8125 62.3125 
L 9.8125 71.09375 
Q 15.4375 72.65625 20.34375 73.4375 
Q 25.25 74.21875 29.59375 74.21875 
Q 40.828125 74.21875 47.359375 69.109375 
Q 53.90625 64.015625 53.90625 55.328125 
Q 53.90625 49.265625 50.4375 45.09375 
Q 46.96875 40.921875 40.578125 39.3125 
z
" id="DejaVuSans-51"/>
      <path d="M -0.296875 72.90625 
L 61.375 72.90625 
L 61.375 64.59375 
L 35.5 64.59375 
L 35.5 0 
L 25.59375 0 
L 25.59375 64.59375 
L -0.296875 64.59375 
z
" id="DejaVuSans-84"/>
     </defs>
     <use xlink:href="#DejaVuSans-87"/>
     <use x="98.876953" xlink:href="#DejaVuSans-51"/>
     <use x="162.5" xlink:href="#DejaVuSans-65"/>
     <use x="229.158203" xlink:href="#DejaVuSans-67"/>
     <use x="298.982422" xlink:href="#DejaVuSans-84"/>
    </g>
   </g>
   <g id="text_20">
    <!-- Wayback -->
    <g transform="translate(337.454375 217.822437)scale(0.1 -0.1)">
     <defs>
      <path d="M 9.078125 75.984375 
L 18.109375 75.984375 
L 18.109375 31.109375 
L 44.921875 54.6875 
L 56.390625 54.6875 
L 27.390625 29.109375 
L 57.625 0 
L 45.90625 0 
L 18.109375 26.703125 
L 18.109375 0 
L 9.078125 0 
z
" id="DejaVuSans-107"/>
     </defs>
     <use xlink:href="#DejaVuSans-87"/>
     <use x="92.501953" xlink:href="#DejaVuSans-97"/>
     <use x="153.78125" xlink:href="#DejaVuSans-121"/>
     <use x="212.960938" xlink:href="#DejaVuSans-98"/>
     <use x="276.4375" xlink:href="#DejaVuSans-97"/>
     <use x="337.716797" xlink:href="#DejaVuSans-99"/>
     <use x="392.697266" xlink:href="#DejaVuSans-107"/>
    </g>
   </g>
   <g id="text_21">
    <!-- Indexes -->
    <g transform="translate(280.410375 270.174437)scale(0.1 -0.1)">
     <defs>
      <path d="M 54.890625 54.6875 
L 35.109375 28.078125 
L 55.90625 0 
L 45.3125 0 
L 29.390625 21.484375 
L 13.484375 0 
L 2.875 0 
L 24.125 28.609375 
L 4.6875 54.6875 
L 15.28125 54.6875 
L 29.78125 35.203125 
L 44.28125 54.6875 
z
" id="DejaVuSans-120"/>
     </defs>
     <use xlink:href="#DejaVuSans-73"/>
     <use x="29.492188" xlink:href="#DejaVuSans-110"/>
     <use x="92.871094" xlink:href="#DejaVuSans-100"/>
     <use x="156.347656" xlink:href="#DejaVuSans-101"/>
     <use x="216.121094" xlink:href="#DejaVuSans-120"/>
     <use x="272.175781" xlink:href="#DejaVuSans-101"/>
     <use x="333.699219" xlink:href="#DejaVuSans-115"/>
    </g>
   </g>
   <g id="text_22">
    <!-- Frequent Crawl -->
    <g transform="translate(188.494375 296.003237)scale(0.1 -0.1)">
     <defs>
      <path d="M 9.8125 72.90625 
L 51.703125 72.90625 
L 51.703125 64.59375 
L 19.671875 64.59375 
L 19.671875 43.109375 
L 48.578125 43.109375 
L 48.578125 34.8125 
L 19.671875 34.8125 
L 19.671875 0 
L 9.8125 0 
z
" id="DejaVuSans-70"/>
      <path d="M 14.796875 27.296875 
Q 14.796875 17.390625 18.875 11.75 
Q 22.953125 6.109375 30.078125 6.109375 
Q 37.203125 6.109375 41.296875 11.75 
Q 45.40625 17.390625 45.40625 27.296875 
Q 45.40625 37.203125 41.296875 42.84375 
Q 37.203125 48.484375 30.078125 48.484375 
Q 22.953125 48.484375 18.875 42.84375 
Q 14.796875 37.203125 14.796875 27.296875 
z
M 45.40625 8.203125 
Q 42.578125 3.328125 38.25 0.953125 
Q 33.9375 -1.421875 27.875 -1.421875 
Q 17.96875 -1.421875 11.734375 6.484375 
Q 5.515625 14.40625 5.515625 27.296875 
Q 5.515625 40.1875 11.734375 48.09375 
Q 17.96875 56 27.875 56 
Q 33.9375 56 38.25 53.625 
Q 42.578125 51.265625 45.40625 46.390625 
L 45.40625 54.6875 
L 54.390625 54.6875 
L 54.390625 -20.796875 
L 45.40625 -20.796875 
z
" id="DejaVuSans-113"/>
      <path id="DejaVuSans-32"/>
     </defs>
     <use xlink:href="#DejaVuSans-70"/>
     <use x="50.269531" xlink:href="#DejaVuSans-114"/>
     <use x="89.132812" xlink:href="#DejaVuSans-101"/>
     <use x="150.65625" xlink:href="#DejaVuSans-113"/>
     <use x="214.132812" xlink:href="#DejaVuSans-117"/>
     <use x="277.511719" xlink:href="#DejaVuSans-101"/>
     <use x="339.035156" xlink:href="#DejaVuSans-110"/>
     <use x="402.414062" xlink:href="#DejaVuSans-116"/>
     <use x="441.623047" xlink:href="#DejaVuSans-32"/>
     <use x="473.410156" xlink:href="#DejaVuSans-67"/>
     <use x="543.234375" xlink:href="#DejaVuSans-114"/>
     <use x="584.347656" xlink:href="#DejaVuSans-97"/>
     <use x="645.626953" xlink:href="#DejaVuSans-119"/>
     <use x="727.414062" xlink:href="#DejaVuSans-108"/>
    </g>
   </g>
   <g id="text_23">
    <!-- Domain Crawl -->
    <g transform="translate(193.494375 333.702437)scale(0.1 -0.1)">
     <use xlink:href="#DejaVuSans-68"/>
     <use x="77.001953" xlink:href="#DejaVuSans-111"/>
     <use x="138.183594" xlink:href="#DejaVuSans-109"/>
     <use x="235.595703" xlink:href="#DejaVuSans-97"/>
     <use x="296.875" xlink:href="#DejaVuSans-105"/>
     <use x="324.658203" xlink:href="#DejaVuSans-110"/>
     <use x="388.037109" xlink:href="#DejaVuSans-32"/>
     <use x="419.824219" xlink:href="#DejaVuSans-67"/>
     <use x="489.648438" xlink:href="#DejaVuSans-114"/>
     <use x="530.761719" xlink:href="#DejaVuSans-97"/>
     <use x="592.041016" xlink:href="#DejaVuSans-119"/>
     <use x="673.828125" xlink:href="#DejaVuSans-108"/>
    </g>
   </g>
   <g id="text_24">
    <!-- WARCs -->
    <g transform="translate(504.854375 373.054437)scale(0.1 -0.1)">
     <use xlink:href="#DejaVuSans-87"/>
     <use x="93.376953" xlink:href="#DejaVuSans-65"/>
     <use x="161.785156" xlink:href="#DejaVuSans-82"/>
     <use x="226.267578" xlink:href="#DejaVuSans-67"/>
     <use x="296.091797" xlink:href="#DejaVuSans-115"/>
    </g>
   </g>
   <g id="text_25">
    <!-- Hadoop -->
    <g transform="translate(638.774375 417.406437)scale(0.1 -0.1)">
     <defs>
      <path d="M 9.8125 72.90625 
L 19.671875 72.90625 
L 19.671875 43.015625 
L 55.515625 43.015625 
L 55.515625 72.90625 
L 65.375 72.90625 
L 65.375 0 
L 55.515625 0 
L 55.515625 34.71875 
L 19.671875 34.71875 
L 19.671875 0 
L 9.8125 0 
z
" id="DejaVuSans-72"/>
      <path d="M 18.109375 8.203125 
L 18.109375 -20.796875 
L 9.078125 -20.796875 
L 9.078125 54.6875 
L 18.109375 54.6875 
L 18.109375 46.390625 
Q 20.953125 51.265625 25.265625 53.625 
Q 29.59375 56 35.59375 56 
Q 45.5625 56 51.78125 48.09375 
Q 58.015625 40.1875 58.015625 27.296875 
Q 58.015625 14.40625 51.78125 6.484375 
Q 45.5625 -1.421875 35.59375 -1.421875 
Q 29.59375 -1.421875 25.265625 0.953125 
Q 20.953125 3.328125 18.109375 8.203125 
z
M 48.6875 27.296875 
Q 48.6875 37.203125 44.609375 42.84375 
Q 40.53125 48.484375 33.40625 48.484375 
Q 26.265625 48.484375 22.1875 42.84375 
Q 18.109375 37.203125 18.109375 27.296875 
Q 18.109375 17.390625 22.1875 11.75 
Q 26.265625 6.109375 33.40625 6.109375 
Q 40.53125 6.109375 44.609375 11.75 
Q 48.6875 17.390625 48.6875 27.296875 
z
" id="DejaVuSans-112"/>
     </defs>
     <use xlink:href="#DejaVuSans-72"/>
     <use x="75.195312" xlink:href="#DejaVuSans-97"/>
     <use x="136.474609" xlink:href="#DejaVuSans-100"/>
     <use x="199.951172" xlink:href="#DejaVuSans-111"/>
     <use x="261.132812" xlink:href="#DejaVuSans-111"/>
     <use x="322.314453" xlink:href="#DejaVuSans-112"/>
    </g>
   </g>
   <g id="text_26">
    <!-- UKWA Overview -->
    <g transform="translate(320.9625 16.318125)scale(0.12 -0.12)">
     <defs>
      <path d="M 8.6875 72.90625 
L 18.609375 72.90625 
L 18.609375 28.609375 
Q 18.609375 16.890625 22.84375 11.734375 
Q 27.09375 6.59375 36.625 6.59375 
Q 46.09375 6.59375 50.34375 11.734375 
Q 54.59375 16.890625 54.59375 28.609375 
L 54.59375 72.90625 
L 64.5 72.90625 
L 64.5 27.390625 
Q 64.5 13.140625 57.4375 5.859375 
Q 50.390625 -1.421875 36.625 -1.421875 
Q 22.796875 -1.421875 15.734375 5.859375 
Q 8.6875 13.140625 8.6875 27.390625 
z
" id="DejaVuSans-85"/>
      <path d="M 9.8125 72.90625 
L 19.671875 72.90625 
L 19.671875 42.09375 
L 52.390625 72.90625 
L 65.09375 72.90625 
L 28.90625 38.921875 
L 67.671875 0 
L 54.6875 0 
L 19.671875 35.109375 
L 19.671875 0 
L 9.8125 0 
z
" id="DejaVuSans-75"/>
      <path d="M 39.40625 66.21875 
Q 28.65625 66.21875 22.328125 58.203125 
Q 16.015625 50.203125 16.015625 36.375 
Q 16.015625 22.609375 22.328125 14.59375 
Q 28.65625 6.59375 39.40625 6.59375 
Q 50.140625 6.59375 56.421875 14.59375 
Q 62.703125 22.609375 62.703125 36.375 
Q 62.703125 50.203125 56.421875 58.203125 
Q 50.140625 66.21875 39.40625 66.21875 
z
M 39.40625 74.21875 
Q 54.734375 74.21875 63.90625 63.9375 
Q 73.09375 53.65625 73.09375 36.375 
Q 73.09375 19.140625 63.90625 8.859375 
Q 54.734375 -1.421875 39.40625 -1.421875 
Q 24.03125 -1.421875 14.8125 8.828125 
Q 5.609375 19.09375 5.609375 36.375 
Q 5.609375 53.65625 14.8125 63.9375 
Q 24.03125 74.21875 39.40625 74.21875 
z
" id="DejaVuSans-79"/>
     </defs>
     <use xlink:href="#DejaVuSans-85"/>
     <use x="73.193359" xlink:href="#DejaVuSans-75"/>
     <use x="135.144531" xlink:href="#DejaVuSans-87"/>
     <use x="228.521484" xlink:href="#DejaVuSans-65"/>
     <use x="296.929688" xlink:href="#DejaVuSans-32"/>
     <use x="328.716797" xlink:href="#DejaVuSans-79"/>
     <use x="407.427734" xlink:href="#DejaVuSans-118"/>
     <use x="466.607422" xlink:href="#DejaVuSans-101"/>
     <use x="528.130859" xlink:href="#DejaVuSans-114"/>
     <use x="569.244141" xlink:href="#DejaVuSans-118"/>
     <use x="628.423828" xlink:href="#DejaVuSans-105"/>
     <use x="656.207031" xlink:href="#DejaVuSans-101"/>
     <use x="717.730469" xlink:href="#DejaVuSans-119"/>
    </g>
   </g>
  </g>
 </g>
 <defs>
  <clipPath id="p5516b4e62e">
   <rect height="443.52" width="669.6" x="34.134375" y="22.318125"/>
  </clipPath>
 </defs>
</svg>
