<svg height="495pt" viewBox="0.00 0.00 337.89 494.68" width="338pt" xmlns="http://www.w3.org/2000/svg" xmlns:xlink="http://www.w3.org/1999/xlink">
<g class="graph" id="graph0" transform="scale(1 1) rotate(0) translate(36 458.68)">
<polygon fill="#ffffff" points="-36,36 -36,-458.68 301.89,-458.68 301.89,36 -36,36" stroke="transparent"/>
<!-- net: default -->
<g class="node" id="node1">
<title>net: default</title>
<polygon fill="none" points="249.01,-23.56 169.45,-36 89.88,-23.56 120.27,-3.44 218.62,-3.44 249.01,-23.56" stroke="black"/>
<text font-family="Times,serif" font-size="14.00" text-anchor="middle" x="169.45" y="-14.3">net: default</text>
</g>
<!-- zookeeper -->
<g class="node" id="node2">
<title>zookeeper</title>
<polygon fill="none" points="213.95,-108 124.95,-108 124.95,-104 120.95,-104 120.95,-100 124.95,-100 124.95,-80 120.95,-80 120.95,-76 124.95,-76 124.95,-72 213.95,-72 213.95,-108" stroke="black"/>
<polyline fill="none" points="124.95,-104 128.95,-104 128.95,-100 124.95,-100 " stroke="black"/>
<polyline fill="none" points="124.95,-80 128.95,-80 128.95,-76 124.95,-76 " stroke="black"/>
<text font-family="Times,serif" font-size="14.00" text-anchor="middle" x="169.45" y="-86.3">zookeeper</text>
</g>
<!-- zookeeper&#45;&gt;net: default -->
<g class="edge" id="edge2">
<title>zookeeper-&gt;net: default</title>
<path d="M169.45,-71.7C169.45,-63.98 169.45,-54.71 169.45,-46.11" fill="none" stroke="black"/>
<polygon fill="black" points="172.95,-46.1 169.45,-36.1 165.95,-46.1 172.95,-46.1" stroke="black"/>
</g>
<!-- 2181 -->
<g class="node" id="node3">
<title>2181</title>
<ellipse cx="169.45" cy="-178.45" fill="none" rx="34.39" ry="34.39" stroke="black"/>
<text font-family="Times,serif" font-size="14.00" text-anchor="middle" x="169.45" y="-174.75">2181</text>
</g>
<!-- 2181&#45;&gt;zookeeper -->
<g class="edge" id="edge1">
<title>2181-&gt;zookeeper</title>
<path d="M169.45,-143.78C169.45,-135.34 169.45,-126.39 169.45,-118.3" fill="none" stroke="black"/>
<polygon fill="black" points="172.95,-118.29 169.45,-108.29 165.95,-118.29 172.95,-118.29" stroke="black"/>
</g>
<!-- kafka -->
<g class="node" id="node4">
<title>kafka</title>
<polygon fill="none" points="116.95,-196.45 61.95,-196.45 61.95,-192.45 57.95,-192.45 57.95,-188.45 61.95,-188.45 61.95,-168.45 57.95,-168.45 57.95,-164.45 61.95,-164.45 61.95,-160.45 116.95,-160.45 116.95,-196.45" stroke="black"/>
<polyline fill="none" points="61.95,-192.45 65.95,-192.45 65.95,-188.45 61.95,-188.45 " stroke="black"/>
<polyline fill="none" points="61.95,-168.45 65.95,-168.45 65.95,-164.45 61.95,-164.45 " stroke="black"/>
<text font-family="Times,serif" font-size="14.00" text-anchor="middle" x="89.45" y="-174.75">kafka</text>
</g>
<!-- kafka&#45;&gt;net: default -->
<g class="edge" id="edge6">
<title>kafka-&gt;net: default</title>
<path d="M91.02,-160.34C93.62,-138.57 100.26,-100.4 116.45,-72 123.26,-60.05 133.49,-48.93 143.14,-39.99" fill="none" stroke="black"/>
<polygon fill="black" points="145.52,-42.56 150.69,-33.32 140.88,-37.32 145.52,-42.56" stroke="black"/>
</g>
<!-- kafka&#45;&gt;zookeeper -->
<g class="edge" id="edge3">
<title>kafka-&gt;zookeeper</title>
<path d="M105.25,-160.37C117.09,-147.58 133.45,-129.9 146.69,-115.59" fill="none" stroke="black" stroke-dasharray="1,5"/>
<polygon fill="black" points="149.45,-117.76 153.67,-108.04 144.31,-113.01 149.45,-117.76" stroke="black"/>
</g>
<!-- 9094 -->
<g class="node" id="node5">
<title>9094</title>
<ellipse cx="34.45" cy="-283.34" fill="none" rx="34.39" ry="34.39" stroke="black"/>
<text font-family="Times,serif" font-size="14.00" text-anchor="middle" x="34.45" y="-279.64">9094</text>
</g>
<!-- 9094&#45;&gt;kafka -->
<g class="edge" id="edge4">
<title>9094-&gt;kafka</title>
<path d="M50.36,-252.58C58.32,-237.68 67.87,-219.81 75.54,-205.47" fill="none" stroke="black"/>
<polygon fill="black" points="78.64,-207.09 80.27,-196.62 72.47,-203.79 78.64,-207.09" stroke="black"/>
</g>
<!-- 7071 -->
<g class="node" id="node6">
<title>7071</title>
<ellipse cx="121.45" cy="-283.34" fill="none" rx="34.39" ry="34.39" stroke="black"/>
<text font-family="Times,serif" font-size="14.00" text-anchor="middle" x="121.45" y="-279.64">7071</text>
</g>
<!-- 7071&#45;&gt;kafka -->
<g class="edge" id="edge5">
<title>7071-&gt;kafka</title>
<path d="M111.5,-250.35C107.08,-236.15 101.95,-219.64 97.74,-206.12" fill="none" stroke="black"/>
<polygon fill="black" points="101.05,-204.96 94.74,-196.45 94.36,-207.04 101.05,-204.96" stroke="black"/>
</g>
<!-- ui -->
<g class="node" id="node7">
<title>ui</title>
<polygon fill="none" points="258.45,-301.34 204.45,-301.34 204.45,-297.34 200.45,-297.34 200.45,-293.34 204.45,-293.34 204.45,-273.34 200.45,-273.34 200.45,-269.34 204.45,-269.34 204.45,-265.34 258.45,-265.34 258.45,-301.34" stroke="black"/>
<polyline fill="none" points="204.45,-297.34 208.45,-297.34 208.45,-293.34 204.45,-293.34 " stroke="black"/>
<polyline fill="none" points="204.45,-273.34 208.45,-273.34 208.45,-269.34 204.45,-269.34 " stroke="black"/>
<text font-family="Times,serif" font-size="14.00" text-anchor="middle" x="231.45" y="-279.64">ui</text>
</g>
<!-- ui&#45;&gt;net: default -->
<g class="edge" id="edge10">
<title>ui-&gt;net: default</title>
<path d="M235.36,-265.33C243.04,-227.93 256.59,-136.73 223.45,-72 217.12,-59.64 206.8,-48.44 196.88,-39.57" fill="none" stroke="black"/>
<polygon fill="black" points="198.98,-36.76 189.08,-32.96 194.45,-42.1 198.98,-36.76" stroke="black"/>
</g>
<!-- ui&#45;&gt;zookeeper -->
<g class="edge" id="edge7">
<title>ui-&gt;zookeeper</title>
<path d="M232,-264.94C232.22,-237.91 230.09,-184.7 212.45,-144 208.13,-134.05 201.41,-124.45 194.55,-116.21" fill="none" stroke="black" stroke-dasharray="1,5"/>
<polygon fill="black" points="196.97,-113.65 187.73,-108.46 191.71,-118.28 196.97,-113.65" stroke="black"/>
</g>
<!-- ui&#45;&gt;kafka -->
<g class="edge" id="edge8">
<title>ui-&gt;kafka</title>
<path d="M204.36,-266C182.69,-252.56 151.83,-232.58 126.45,-212.89 122.63,-209.93 118.72,-206.67 114.93,-203.38" fill="none" stroke="black" stroke-dasharray="1,5"/>
<polygon fill="black" points="117.21,-200.73 107.42,-196.68 112.55,-205.95 117.21,-200.73" stroke="black"/>
</g>
<!-- 9000 -->
<g class="node" id="node8">
<title>9000</title>
<ellipse cx="231.45" cy="-388.23" fill="none" rx="34.39" ry="34.39" stroke="black"/>
<text font-family="Times,serif" font-size="14.00" text-anchor="middle" x="231.45" y="-384.53">9000</text>
</g>
<!-- 9000&#45;&gt;ui -->
<g class="edge" id="edge9">
<title>9000-&gt;ui</title>
<path d="M231.45,-353.54C231.45,-339.9 231.45,-324.35 231.45,-311.46" fill="none" stroke="black"/>
<polygon fill="black" points="234.95,-311.35 231.45,-301.35 227.95,-311.35 234.95,-311.35" stroke="black"/>
</g>
</g>
</svg>