<?xml version="1.0" encoding="UTF-8" standalone="no"?>
<!DOCTYPE svg PUBLIC "-//W3C//DTD SVG 1.1//EN"
 "http://www.w3.org/Graphics/SVG/1.1/DTD/svg11.dtd">
<!-- Generated by graphviz version 2.44.0 ()
 -->
<!-- Pages: 1 -->
<svg width="338pt" height="495pt"
 viewBox="0.00 0.00 337.89 494.68" xmlns="http://www.w3.org/2000/svg" xmlns:xlink="http://www.w3.org/1999/xlink">
<g id="graph0" class="graph" transform="scale(1 1) rotate(0) translate(36 458.68)">
<polygon fill="#ffffff" stroke="transparent" points="-36,36 -36,-458.68 301.89,-458.68 301.89,36 -36,36"/>
<!-- net: default -->
<g id="node1" class="node">
<title>net: default</title>
<polygon fill="none" stroke="black" points="249.01,-23.56 169.45,-36 89.88,-23.56 120.27,-3.44 218.62,-3.44 249.01,-23.56"/>
<text text-anchor="middle" x="169.45" y="-14.3" font-family="Times,serif" font-size="14.00">net: default</text>
</g>
<!-- zookeeper -->
<g id="node2" class="node">
<title>zookeeper</title>
<polygon fill="none" stroke="black" points="213.95,-108 124.95,-108 124.95,-104 120.95,-104 120.95,-100 124.95,-100 124.95,-80 120.95,-80 120.95,-76 124.95,-76 124.95,-72 213.95,-72 213.95,-108"/>
<polyline fill="none" stroke="black" points="124.95,-104 128.95,-104 128.95,-100 124.95,-100 "/>
<polyline fill="none" stroke="black" points="124.95,-80 128.95,-80 128.95,-76 124.95,-76 "/>
<text text-anchor="middle" x="169.45" y="-86.3" font-family="Times,serif" font-size="14.00">zookeeper</text>
</g>
<!-- zookeeper&#45;&gt;net: default -->
<g id="edge2" class="edge">
<title>zookeeper&#45;&gt;net: default</title>
<path fill="none" stroke="black" d="M169.45,-71.7C169.45,-63.98 169.45,-54.71 169.45,-46.11"/>
<polygon fill="black" stroke="black" points="172.95,-46.1 169.45,-36.1 165.95,-46.1 172.95,-46.1"/>
</g>
<!-- 2181 -->
<g id="node3" class="node">
<title>2181</title>
<ellipse fill="none" stroke="black" cx="169.45" cy="-178.45" rx="34.39" ry="34.39"/>
<text text-anchor="middle" x="169.45" y="-174.75" font-family="Times,serif" font-size="14.00">2181</text>
</g>
<!-- 2181&#45;&gt;zookeeper -->
<g id="edge1" class="edge">
<title>2181&#45;&gt;zookeeper</title>
<path fill="none" stroke="black" d="M169.45,-143.78C169.45,-135.34 169.45,-126.39 169.45,-118.3"/>
<polygon fill="black" stroke="black" points="172.95,-118.29 169.45,-108.29 165.95,-118.29 172.95,-118.29"/>
</g>
<!-- kafka -->
<g id="node4" class="node">
<title>kafka</title>
<polygon fill="none" stroke="black" points="116.95,-196.45 61.95,-196.45 61.95,-192.45 57.95,-192.45 57.95,-188.45 61.95,-188.45 61.95,-168.45 57.95,-168.45 57.95,-164.45 61.95,-164.45 61.95,-160.45 116.95,-160.45 116.95,-196.45"/>
<polyline fill="none" stroke="black" points="61.95,-192.45 65.95,-192.45 65.95,-188.45 61.95,-188.45 "/>
<polyline fill="none" stroke="black" points="61.95,-168.45 65.95,-168.45 65.95,-164.45 61.95,-164.45 "/>
<text text-anchor="middle" x="89.45" y="-174.75" font-family="Times,serif" font-size="14.00">kafka</text>
</g>
<!-- kafka&#45;&gt;net: default -->
<g id="edge6" class="edge">
<title>kafka&#45;&gt;net: default</title>
<path fill="none" stroke="black" d="M91.02,-160.34C93.62,-138.57 100.26,-100.4 116.45,-72 123.26,-60.05 133.49,-48.93 143.14,-39.99"/>
<polygon fill="black" stroke="black" points="145.52,-42.56 150.69,-33.32 140.88,-37.32 145.52,-42.56"/>
</g>
<!-- kafka&#45;&gt;zookeeper -->
<g id="edge3" class="edge">
<title>kafka&#45;&gt;zookeeper</title>
<path fill="none" stroke="black" stroke-dasharray="1,5" d="M105.25,-160.37C117.09,-147.58 133.45,-129.9 146.69,-115.59"/>
<polygon fill="black" stroke="black" points="149.45,-117.76 153.67,-108.04 144.31,-113.01 149.45,-117.76"/>
</g>
<!-- 7071 -->
<g id="node5" class="node">
<title>7071</title>
<ellipse fill="none" stroke="black" cx="34.45" cy="-283.34" rx="34.39" ry="34.39"/>
<text text-anchor="middle" x="34.45" y="-279.64" font-family="Times,serif" font-size="14.00">7071</text>
</g>
<!-- 7071&#45;&gt;kafka -->
<g id="edge4" class="edge">
<title>7071&#45;&gt;kafka</title>
<path fill="none" stroke="black" d="M50.36,-252.58C58.32,-237.68 67.87,-219.81 75.54,-205.47"/>
<polygon fill="black" stroke="black" points="78.64,-207.09 80.27,-196.62 72.47,-203.79 78.64,-207.09"/>
</g>
<!-- 9094 -->
<g id="node6" class="node">
<title>9094</title>
<ellipse fill="none" stroke="black" cx="121.45" cy="-283.34" rx="34.39" ry="34.39"/>
<text text-anchor="middle" x="121.45" y="-279.64" font-family="Times,serif" font-size="14.00">9094</text>
</g>
<!-- 9094&#45;&gt;kafka -->
<g id="edge5" class="edge">
<title>9094&#45;&gt;kafka</title>
<path fill="none" stroke="black" d="M111.5,-250.35C107.08,-236.15 101.95,-219.64 97.74,-206.12"/>
<polygon fill="black" stroke="black" points="101.05,-204.96 94.74,-196.45 94.36,-207.04 101.05,-204.96"/>
</g>
<!-- ui -->
<g id="node7" class="node">
<title>ui</title>
<polygon fill="none" stroke="black" points="258.45,-301.34 204.45,-301.34 204.45,-297.34 200.45,-297.34 200.45,-293.34 204.45,-293.34 204.45,-273.34 200.45,-273.34 200.45,-269.34 204.45,-269.34 204.45,-265.34 258.45,-265.34 258.45,-301.34"/>
<polyline fill="none" stroke="black" points="204.45,-297.34 208.45,-297.34 208.45,-293.34 204.45,-293.34 "/>
<polyline fill="none" stroke="black" points="204.45,-273.34 208.45,-273.34 208.45,-269.34 204.45,-269.34 "/>
<text text-anchor="middle" x="231.45" y="-279.64" font-family="Times,serif" font-size="14.00">ui</text>
</g>
<!-- ui&#45;&gt;net: default -->
<g id="edge10" class="edge">
<title>ui&#45;&gt;net: default</title>
<path fill="none" stroke="black" d="M235.36,-265.33C243.04,-227.93 256.59,-136.73 223.45,-72 217.12,-59.64 206.8,-48.44 196.88,-39.57"/>
<polygon fill="black" stroke="black" points="198.98,-36.76 189.08,-32.96 194.45,-42.1 198.98,-36.76"/>
</g>
<!-- ui&#45;&gt;zookeeper -->
<g id="edge7" class="edge">
<title>ui&#45;&gt;zookeeper</title>
<path fill="none" stroke="black" stroke-dasharray="1,5" d="M232,-264.94C232.22,-237.91 230.09,-184.7 212.45,-144 208.13,-134.05 201.41,-124.45 194.55,-116.21"/>
<polygon fill="black" stroke="black" points="196.97,-113.65 187.73,-108.46 191.71,-118.28 196.97,-113.65"/>
</g>
<!-- ui&#45;&gt;kafka -->
<g id="edge8" class="edge">
<title>ui&#45;&gt;kafka</title>
<path fill="none" stroke="black" stroke-dasharray="1,5" d="M204.36,-266C182.69,-252.56 151.83,-232.58 126.45,-212.89 122.63,-209.93 118.72,-206.67 114.93,-203.38"/>
<polygon fill="black" stroke="black" points="117.21,-200.73 107.42,-196.68 112.55,-205.95 117.21,-200.73"/>
</g>
<!-- 9000 -->
<g id="node8" class="node">
<title>9000</title>
<ellipse fill="none" stroke="black" cx="231.45" cy="-388.23" rx="34.39" ry="34.39"/>
<text text-anchor="middle" x="231.45" y="-384.53" font-family="Times,serif" font-size="14.00">9000</text>
</g>
<!-- 9000&#45;&gt;ui -->
<g id="edge9" class="edge">
<title>9000&#45;&gt;ui</title>
<path fill="none" stroke="black" d="M231.45,-353.54C231.45,-339.9 231.45,-324.35 231.45,-311.46"/>
<polygon fill="black" stroke="black" points="234.95,-311.35 231.45,-301.35 227.95,-311.35 234.95,-311.35"/>
</g>
</g>
</svg>
